<?xml version="1.0" standalone="no"?>
<!DOCTYPE svg PUBLIC "-//W3C//DTD SVG 20010904//EN"
 "http://www.w3.org/TR/2001/REC-SVG-20010904/DTD/svg10.dtd">
<svg version="1.0" xmlns="http://www.w3.org/2000/svg"
 width="1587.000000pt" height="1575.000000pt" viewBox="0 0 1587.000000 1575.000000"
 preserveAspectRatio="xMidYMid meet">

<g transform="translate(0.000000,1575.000000) scale(0.100000,-0.100000)"
fill="#000000" stroke="none">
<path d="M3 7878 l2 -7873 7928 -3 7928 -2 -2 7875 -1 7875 -6992 -1 c-6058
-1 -6980 -3 -6907 -15 81 -14 115 -24 75 -24 -10 0 -80 8 -154 16 -109 13
-306 17 -1007 21 l-873 5 3 -7874z m1320 7855 c-34 -2 -93 -2 -130 0 -37 2 -9
3 62 3 72 0 102 -1 68 -3z m12378 0 c-19 -4 -21 -7 -10 -14 11 -7 9 -9 -7 -9
-12 0 -24 7 -28 15 -4 12 3 15 32 14 26 -1 30 -3 13 -6z m272 0 c-7 -2 -21 -2
-30 0 -10 3 -4 5 12 5 17 0 24 -2 18 -5z m-125 -10 c-10 -2 -28 -2 -40 0 -13
2 -5 4 17 4 22 1 32 -1 23 -4z m-12740 -57 c35 -8 65 -16 68 -18 2 -3 -32 -8
-76 -11 -99 -8 -235 -52 -350 -114 -119 -64 -163 -96 -257 -187 -46 -43 -83
-76 -83 -73 0 3 6 12 13 19 29 31 68 101 63 114 -8 20 148 153 225 191 75 37
140 60 224 78 77 17 96 17 173 1z m12162 -66 c-8 -5 -19 -10 -25 -10 -5 0 -3
5 5 10 8 5 20 10 25 10 6 0 3 -5 -5 -10z m-41 -14 c-2 -2 -53 -26 -113 -52
-62 -27 -146 -74 -197 -111 -48 -34 -93 -63 -99 -63 -6 0 -20 16 -32 35 -25
44 -36 39 -13 -5 9 -18 14 -34 11 -37 -3 -3 -2209 -6 -4903 -7 -4648 -2 -4903
-3 -4988 -19 -120 -24 -162 -17 -250 40 -90 59 -205 154 -205 171 0 9 32 12
128 13 70 0 2471 1 5337 2 4720 3 5215 4 5260 19 53 17 71 20 64 14z m1905
-41 c11 -8 15 -15 10 -15 -6 0 -19 7 -30 15 -10 8 -14 14 -9 14 6 0 19 -6 29
-14z m141 -95 c138 -110 291 -298 335 -414 12 -32 -3 -35 -17 -3 -15 31 -76
97 -245 268 -82 82 -148 152 -148 155 0 3 7 4 15 0 24 -9 17 6 -17 36 -53 46
5 15 77 -42z m-14027 53 c-10 -2 -28 -2 -40 0 -13 2 -5 4 17 4 22 1 32 -1 23
-4z m-105 -10 c-7 -2 -21 -2 -30 0 -10 3 -4 5 12 5 17 0 24 -2 18 -5z m1211
-36 c44 -21 77 -39 75 -41 -8 -8 -214 27 -220 37 -4 5 -16 4 -30 -4 -21 -11
-22 -10 -12 2 15 19 5 36 -27 42 -14 3 11 4 55 3 68 -2 92 -8 159 -39z m-1271
26 c-7 -2 -21 -2 -30 0 -10 3 -4 5 12 5 17 0 24 -2 18 -5z m-630 -118 c-10
-13 -22 -25 -27 -25 -5 0 1 11 14 25 30 32 36 32 13 0z m-53 -58 c0 -2 -10
-12 -22 -23 l-23 -19 19 23 c18 21 26 27 26 19z m12337 -12 c48 -6 54 -9 77
-50 42 -71 122 -123 254 -165 23 -7 42 -17 42 -21 0 -11 -86 -37 -164 -49 -38
-6 -74 -14 -79 -17 -6 -3 -1090 -6 -2410 -5 l-2400 1 -26 39 c-26 39 -83 158
-96 197 -5 16 -12 8 -40 -43 -18 -35 -52 -92 -75 -128 -41 -61 -44 -64 -84
-64 -22 -1 -1160 -1 -2528 -1 -1943 -1 -2491 2 -2510 12 -47 24 -158 102 -158
110 0 5 8 9 18 9 16 -1 192 41 201 47 3 2 -8 17 -24 33 -17 18 -25 33 -19 38
12 12 153 60 184 64 48 6 9786 -2 9837 -7z m1854 -85 c167 -48 337 -127 384
-181 l20 -22 -30 19 c-28 18 -28 17 10 -33 22 -28 46 -52 53 -52 6 -1 11 -5
10 -9 -2 -5 7 -20 19 -33 60 -65 107 -130 135 -186 17 -35 32 -63 34 -63 5 0
-26 81 -36 95 -9 14 -20 45 -16 45 2 0 15 -19 29 -42 31 -53 80 -188 68 -188
-5 0 -11 14 -15 32 -3 17 -9 29 -11 26 -3 -3 4 -39 16 -79 41 -143 37 -378
-11 -669 -11 -63 -25 -153 -32 -200 -9 -65 -14 -1276 -20 -5215 -5 -2821 -10
-5299 -11 -5505 -2 -416 5 -503 79 -919 51 -287 75 -496 76 -666 2 -173 -6
-213 -66 -340 -65 -139 -153 -248 -264 -332 -81 -62 -124 -84 -222 -114 -66
-21 -94 -24 -230 -23 -203 1 -292 18 -495 99 -209 83 -289 105 -409 112 l-99
6 36 29 c20 16 59 66 86 111 88 146 101 152 371 152 l195 0 3 28 c2 15 -1 27
-7 27 -17 0 -81 61 -98 94 -19 36 -33 283 -16 273 6 -4 13 -25 16 -47 6 -50
54 -130 121 -205 l51 -57 40 56 c71 99 89 74 30 -43 -19 -38 -41 -100 -50
-138 -20 -89 -33 -193 -25 -193 3 0 16 17 28 38 34 61 49 69 152 81 116 13
174 32 223 72 51 42 113 135 144 217 25 66 25 70 17 227 -5 88 -8 196 -7 240
2 44 4 339 7 655 l4 576 46 91 c25 51 62 149 82 219 19 71 42 140 50 155 8 16
14 32 14 37 0 4 -24 46 -54 93 -66 104 -94 189 -102 317 l-7 96 -17 -50 c-36
-104 -91 -171 -134 -161 -12 3 -35 8 -53 12 l-31 7 10 -46 c12 -55 -4 -111
-65 -226 -36 -69 -39 -79 -33 -130 4 -34 25 -94 56 -160 27 -58 54 -134 60
-169 8 -44 11 -225 10 -555 -2 -311 1 -502 8 -521 5 -16 13 -38 17 -47 7 -17
-3 -18 -119 -18 -133 0 -269 -19 -461 -66 -55 -13 -115 -24 -134 -24 -39 0
-102 28 -146 65 l-30 25 35 -18 c54 -26 149 -22 240 12 55 20 99 29 165 32
105 4 126 16 168 92 l28 51 -58 -5 c-129 -11 -221 -44 -305 -108 -53 -41 -114
-59 -166 -51 -82 14 -139 30 -172 50 -72 45 -231 127 -236 123 -2 -3 31 -28
73 -56 150 -98 341 -300 390 -411 15 -34 16 -65 10 -221 -1 -14 3 -62 7 -107
l8 -82 -34 -14 c-18 -7 -72 -19 -119 -26 -147 -20 -185 -35 -257 -104 -35 -34
-101 -109 -147 -167 -82 -104 -128 -145 -215 -191 l-45 -24 -2360 -2 c-1298
-2 -2434 1 -2525 5 l-165 7 135 92 c74 51 165 121 201 156 37 35 87 79 113 96
52 36 58 45 20 31 -14 -6 -38 -10 -55 -10 -22 0 -46 -16 -101 -69 -40 -38
-113 -95 -163 -126 -49 -32 -128 -87 -174 -122 -72 -54 -111 -75 -111 -59 0 8
92 211 131 289 23 45 79 139 125 209 102 155 191 236 329 303 119 58 215 85
526 145 863 168 1378 333 1927 615 720 371 1196 774 1569 1330 175 260 322
624 415 1029 49 213 94 532 118 826 14 171 101 614 152 770 54 168 177 361
394 621 295 353 447 508 787 801 142 122 292 238 308 238 5 0 9 5 9 10 0 6
-26 10 -57 10 -276 1 -577 216 -982 700 -176 210 -311 456 -295 535 3 16 33
107 66 200 72 203 140 465 164 630 22 152 26 572 6 685 -63 358 -319 959 -600
1410 -164 262 -316 455 -511 650 -244 243 -504 436 -921 685 -562 336 -1296
616 -1950 744 -85 16 -250 48 -365 70 -313 60 -501 126 -664 231 -210 136
-611 470 -611 509 0 9 592 12 2533 11 1708 -1 2543 2 2566 9 19 6 41 17 51 26
15 14 23 13 81 -6 137 -45 322 -165 471 -307 70 -66 103 -191 79 -302 -6 -29
-9 -55 -7 -58 3 -2 16 -2 30 2 16 4 29 18 37 40 13 36 29 39 29 6 0 -10 16
-51 35 -91 47 -98 46 -132 -3 -178 -21 -20 -81 -62 -134 -93 -125 -75 -241
-161 -325 -243 l-68 -66 65 47 c149 107 391 232 564 293 108 38 239 54 377 44
110 -7 123 -14 135 -80 14 -76 -40 -128 -103 -98 -107 51 -278 58 -443 18 -27
-6 130 -31 205 -33 72 -1 130 -26 221 -95 10 -7 23 0 48 24 31 30 40 33 74 29
22 -3 51 -14 66 -24 26 -16 27 -21 22 -73 -3 -31 -9 -231 -12 -446 l-6 -389
-29 -52 c-17 -29 -38 -76 -48 -104 l-19 -53 35 -76 c19 -42 48 -104 64 -138
l30 -63 -36 -46 c-36 -48 -42 -68 -25 -79 20 -13 152 -218 173 -269 11 -28 23
-54 27 -59 3 -4 14 28 24 70 10 43 35 121 56 173 79 200 95 282 65 340 -11 21
-13 45 -9 82 7 63 -5 98 -65 187 -74 109 -76 125 -74 641 1 357 5 489 19 615
42 385 26 456 -131 610 -103 101 -184 150 -277 165 -64 11 -71 15 -84 44 -7
17 -14 29 -14 26 -1 -3 -3 -13 -5 -23 -4 -23 4 -17 -86 -69 -42 -25 -120 -75
-174 -112 -55 -37 -107 -66 -117 -64 -10 2 -58 50 -106 107 -94 113 -225 226
-308 267 -38 18 -77 27 -141 33 l-88 6 58 23 c144 55 644 161 807 171 149 9
251 -2 381 -39z m444 -71 c39 -27 86 -65 105 -86 32 -33 30 -33 -20 9 -57 47
-243 168 -258 168 -5 0 -16 8 -23 17 -18 22 106 -46 196 -108z m-13388 81
c157 -27 496 -125 637 -185 l39 -16 -84 -51 c-46 -28 -122 -73 -169 -101 -47
-27 -103 -64 -125 -82 -87 -69 -137 -98 -145 -85 -5 8 -17 10 -34 6 -20 -5
-38 3 -86 38 -88 65 -112 71 -290 71 -175 -1 -236 -14 -296 -67 -48 -43 -53
-53 -90 -222 l-34 -151 0 -630 c-1 -346 -5 -675 -9 -730 -10 -119 -28 -169
-116 -325 -55 -95 -65 -121 -62 -150 5 -34 85 -234 185 -458 27 -62 53 -123
57 -135 6 -18 8 -14 16 22 9 46 37 98 100 189 44 62 49 97 23 158 -19 46 -21
122 -4 155 7 13 37 56 67 95 29 40 53 80 53 91 0 10 -36 73 -79 138 l-79 120
-4 556 -3 555 29 -40 c15 -23 54 -66 85 -97 44 -43 60 -66 70 -102 12 -48 19
-55 37 -37 8 8 19 8 36 0 38 -18 130 33 232 130 46 43 96 82 110 86 15 3 56 3
92 -1 159 -17 402 -135 552 -268 102 -91 66 -45 -68 86 -102 99 -159 146 -228
187 -50 30 -117 70 -147 88 l-55 34 6 83 c6 71 3 94 -16 153 -13 41 -20 80
-17 94 9 35 119 187 193 267 100 108 288 232 418 276 79 27 125 28 201 3 l70
-22 2508 -3 c1379 -2 2507 -6 2507 -9 0 -15 -106 -137 -186 -214 -298 -287
-634 -444 -1234 -575 -118 -26 -276 -60 -350 -76 -562 -123 -1006 -287 -1570
-580 -595 -310 -1114 -721 -1437 -1139 -305 -395 -635 -1060 -747 -1505 -55
-219 -69 -326 -70 -550 0 -199 1 -218 32 -360 35 -169 102 -378 198 -617 35
-89 64 -173 64 -186 0 -57 -213 -384 -389 -597 -150 -181 -410 -421 -591 -544
-146 -100 -246 -143 -334 -143 -34 0 -46 -3 -36 -9 8 -5 55 -33 103 -62 323
-189 772 -607 1053 -979 208 -274 354 -533 399 -708 35 -137 53 -304 70 -650
23 -462 49 -677 116 -960 132 -558 493 -1187 892 -1554 427 -392 961 -700
1638 -944 310 -112 594 -182 1134 -282 521 -97 749 -175 927 -319 83 -66 120
-109 197 -223 55 -83 245 -447 237 -455 -3 -3 -17 4 -33 14 -15 11 -82 50
-148 88 -172 98 -367 227 -425 281 -55 52 -64 50 -23 -5 71 -95 145 -159 301
-262 90 -59 172 -111 183 -114 10 -4 19 -11 19 -16 0 -10 -3756 -10 -4615 0
l-480 6 -57 28 c-37 18 -100 69 -188 152 -138 131 -221 185 -375 247 -133 54
-128 43 -89 163 20 60 27 101 27 163 0 76 -3 89 -35 151 -32 60 -34 70 -22 92
7 13 73 78 146 144 149 134 321 301 298 289 -8 -4 -40 -24 -70 -44 -214 -144
-422 -180 -579 -100 -34 17 -97 62 -141 100 -43 39 -82 70 -86 70 -4 0 -4 -30
-1 -67 6 -62 10 -71 41 -98 19 -17 59 -38 88 -48 62 -19 196 -40 209 -31 5 3
9 1 9 -4 0 -16 -114 -23 -186 -12 -82 13 -187 43 -266 76 -32 13 -63 24 -69
24 -22 0 9 -26 61 -50 28 -13 47 -27 42 -32 -13 -13 -143 -48 -179 -48 -26 0
-38 8 -68 46 l-35 47 7 101 c11 141 10 884 -1 981 -10 91 1 127 55 196 17 22
39 66 49 98 10 33 32 85 50 116 36 63 34 87 -2 31 -29 -45 -41 -46 -32 -2 5
31 3 35 -18 38 -20 3 -29 20 -69 133 -25 72 -58 155 -72 185 -15 30 -30 76
-33 102 -4 27 -9 48 -13 48 -3 0 -19 -33 -35 -73 -15 -39 -51 -121 -78 -181
-79 -171 -89 -208 -95 -331 l-5 -110 83 -165 84 -165 -3 -280 c-1 -154 -7
-370 -13 -480 -11 -180 -10 -209 5 -278 10 -42 30 -102 45 -132 l28 -55 -25
-87 c-33 -116 -36 -288 -8 -380 38 -123 126 -203 301 -270 87 -33 102 -42 114
-71 8 -17 17 -32 20 -32 3 1 27 32 53 70 70 102 96 118 233 142 l116 21 37
-32 c20 -17 69 -50 107 -73 75 -46 342 -235 351 -249 3 -5 -21 -6 -53 -3 -77
8 -304 -11 -373 -31 -30 -9 -125 -50 -211 -91 -191 -91 -259 -108 -414 -101
-125 6 -199 23 -302 72 -237 111 -408 313 -474 560 -17 62 -22 108 -21 205 0
125 4 160 106 843 59 395 69 551 61 932 -4 182 -8 2571 -9 5310 -1 3983 -4
4999 -14 5075 -7 52 -36 228 -64 390 -88 516 -78 650 62 869 56 88 192 224
284 285 84 55 213 113 302 135 108 27 277 27 431 1z m-1389 -110 c-7 -10 -14
-17 -17 -15 -4 4 18 35 25 35 2 0 -1 -9 -8 -20z m-77 -141 c-5 -13 -10 -19
-10 -12 -1 15 10 45 15 40 3 -2 0 -15 -5 -28z m14860 4 c13 -16 12 -17 -3 -4
-17 13 -22 21 -14 21 2 0 10 -8 17 -17z m250 -75 c31 -43 17 -34 -21 15 -19
23 -26 36 -17 28 10 -8 27 -27 38 -43z m-14733 -10 c-86 -133 -148 -272 -178
-404 -11 -49 -30 -109 -43 -134 l-22 -45 -3 55 c-4 72 22 178 65 265 33 65
138 229 171 268 21 24 27 21 10 -5z m14802 -92 c0 -12 -5 -7 -19 24 -11 24
-11 24 3 6 9 -11 16 -24 16 -30z m-854 -164 c39 -58 54 -100 54 -149 0 -42
-28 -113 -45 -113 -21 0 -44 61 -60 163 -17 105 -35 163 -65 212 -11 18 -20
36 -20 41 1 14 97 -95 136 -154z m-156 131 c0 -54 -108 -296 -170 -382 -37
-51 -72 -55 -94 -13 -13 25 -13 38 0 103 22 106 48 155 108 200 28 21 71 54
96 73 52 40 60 42 60 19z m333 -122 c27 -25 68 -73 91 -106 l41 -60 0 -103 0
-103 -45 -42 c-37 -35 -47 -51 -55 -95 -5 -29 -14 -52 -20 -52 -5 1 -9 9 -8
18 24 179 25 199 9 316 -16 126 -35 177 -92 252 -19 24 -34 46 -34 49 0 13 68
-31 113 -74z m-7166 -48 c-110 -127 -248 -247 -375 -327 -89 -56 -309 -159
-408 -192 -86 -28 -300 -75 -489 -109 -75 -13 -30 3 95 35 347 87 632 202 837
339 87 58 296 235 377 320 73 75 49 33 -37 -66z m852 -26 c256 -238 458 -374
661 -441 59 -20 185 -54 280 -76 181 -41 154 -46 -54 -9 -307 54 -421 96 -619
229 -158 105 -262 209 -367 365 -39 59 -32 54 99 -68z m-6740 62 c69 -12 129
-25 133 -28 6 -6 -8 -100 -16 -108 -2 -3 -21 1 -43 7 -21 7 -77 15 -125 19
-71 6 -96 13 -134 37 -26 16 -49 34 -51 40 -7 23 40 22 110 -1 40 -13 73 -22
75 -21 1 2 -18 16 -43 31 -41 26 -57 45 -38 45 4 0 63 -10 132 -21z m-1465
-170 c-9 -46 -18 -86 -21 -89 -10 -9 4 125 16 154 20 48 21 24 5 -65z m1084
67 c6 -14 28 -44 49 -67 l37 -41 -22 -39 c-12 -21 -22 -45 -22 -53 0 -54 -65
29 -80 101 -7 32 -16 70 -20 85 -10 31 -5 38 25 38 13 0 26 -9 33 -24z m7332
-276 c93 -77 216 -155 325 -206 116 -54 369 -129 620 -183 742 -162 1131 -293
1670 -563 204 -103 344 -176 362 -191 7 -5 10 -13 7 -18 -3 -5 -3 -9 0 -9 2 0
13 -3 23 -6 15 -5 15 -4 3 5 -8 6 -10 11 -5 10 6 0 42 -20 80 -44 39 -24 94
-58 123 -75 32 -19 50 -35 46 -42 -5 -7 -3 -8 6 -3 9 5 22 -2 38 -21 13 -16
21 -22 16 -14 -12 21 44 -14 76 -49 14 -15 21 -20 15 -12 -8 12 -7 13 6 5 23
-13 74 -54 119 -96 23 -20 42 -36 44 -35 9 6 65 -47 59 -56 -3 -5 -1 -7 5 -3
6 3 18 -4 26 -16 9 -12 16 -18 17 -13 0 6 4 0 10 -13 6 -17 14 -22 28 -17 11
3 22 1 26 -4 4 -7 -1 -8 -11 -4 -12 4 -15 3 -10 -5 4 -7 12 -12 18 -12 5 0 22
-8 36 -19 15 -10 41 -21 57 -25 22 -5 26 -4 15 4 -9 6 -10 10 -3 10 12 0 210
-167 245 -206 36 -41 61 -115 55 -164 l-6 -47 95 -97 c60 -60 92 -101 88 -109
-4 -6 -4 -9 0 -5 4 4 20 -8 35 -25 37 -44 121 -166 121 -177 0 -4 4 -10 8 -12
12 -4 82 -111 82 -124 0 -6 -12 -16 -26 -23 -16 -7 -24 -17 -20 -26 3 -8 1
-17 -4 -20 -14 -9 -12 29 1 42 13 13 3 36 -12 28 -5 -4 -9 -15 -9 -25 0 -13
-5 -17 -15 -14 -8 4 -15 15 -15 26 0 13 -5 18 -14 15 -9 -4 -17 1 -21 12 -3
10 -17 28 -30 41 -24 22 -26 23 -38 6 -12 -16 -13 -15 -12 9 0 20 -7 29 -32
40 -28 12 -31 12 -26 -2 5 -13 2 -15 -15 -11 -11 3 -23 3 -25 -1 -2 -3 -3 -1
-1 4 2 14 -18 42 -31 43 -5 0 -12 10 -15 22 -3 12 -9 22 -15 23 -5 1 -8 8 -7
16 2 7 -1 10 -7 6 -6 -3 -11 -1 -11 4 0 6 -8 19 -17 29 -41 42 -78 97 -75 110
2 8 0 21 -4 31 -4 9 -8 22 -10 28 -1 7 -18 32 -38 55 -20 23 -36 45 -36 49 0
3 -13 12 -29 19 -16 6 -119 104 -228 217 -109 113 -215 222 -235 243 -21 21
-38 43 -38 49 0 6 -9 11 -20 11 -11 0 -23 7 -26 15 -4 8 -14 15 -25 15 -10 0
-26 8 -36 18 -10 10 -58 54 -108 98 -49 43 -91 82 -93 86 -2 5 -12 8 -22 8
-13 0 -17 5 -13 20 6 22 -12 28 -20 8 -3 -7 -6 -3 -6 10 -1 12 4 22 10 22 8 0
7 5 -2 16 -12 14 -14 14 -26 -2 -17 -23 -28 -11 -13 15 7 14 7 21 0 21 -5 0
-10 -6 -10 -13 0 -8 -9 -22 -20 -32 -19 -17 -20 -17 -20 1 0 14 -3 15 -8 6 -7
-9 -15 -7 -35 12 -15 14 -27 23 -27 20 0 -2 -11 3 -25 12 -21 14 -25 22 -20
45 4 18 2 29 -4 29 -6 0 -10 -5 -9 -11 2 -6 -3 -14 -9 -16 -7 -3 -13 3 -13 11
0 9 -7 19 -15 22 -8 4 -15 13 -15 22 0 13 -2 13 -18 -1 -19 -17 -37 -23 -28
-9 2 4 -2 16 -10 27 -8 10 -14 13 -14 6 0 -7 -5 -9 -10 -6 -6 4 -8 11 -5 16 9
13 -9 11 -23 -3 -9 -9 -12 -8 -12 7 0 13 -3 16 -8 8 -5 -8 -14 -6 -32 8 -21
17 -22 19 -3 10 12 -6 24 -11 26 -11 10 0 -5 40 -19 51 -8 6 -14 20 -14 31 0
13 -5 18 -14 15 -8 -3 -16 -2 -18 2 -5 13 -138 23 -138 11 0 -6 5 -8 10 -5 6
3 10 1 10 -4 0 -15 -17 -14 -26 1 -4 6 2 19 14 29 19 15 20 18 7 29 -9 7 -18
10 -22 6 -3 -3 -1 -6 5 -6 22 0 12 -18 -13 -24 -14 -4 -23 -11 -20 -16 4 -6
-6 -5 -20 2 -15 7 -22 14 -16 16 6 2 8 8 5 13 -4 6 -10 6 -18 0 -9 -8 -18 -6
-32 5 -18 15 -18 15 4 9 14 -4 22 -2 22 6 0 7 -10 9 -30 6 -22 -5 -51 3 -112
32 -46 21 -117 53 -158 70 -41 18 -95 41 -120 51 -132 57 -530 185 -670 215
-439 96 -472 104 -466 113 2 4 -17 8 -42 9 -95 4 -399 122 -564 219 -193 113
-387 287 -489 437 l-62 92 124 -120 c68 -67 153 -145 189 -175z m-1096 218
c-19 -31 -95 -120 -169 -196 -158 -165 -320 -283 -507 -372 -104 -49 -356
-131 -588 -190 -847 -217 -1586 -557 -2136 -982 -66 -51 -138 -106 -160 -123
-199 -149 -565 -521 -743 -754 -151 -198 -298 -434 -407 -653 -27 -53 -45 -78
-59 -80 -20 -3 -22 -12 -10 -58 5 -18 4 -21 -3 -11 -8 11 -11 10 -15 -5 -4
-16 -5 -15 -6 4 0 13 -5 32 -11 42 -7 13 -6 19 4 23 9 4 13 19 11 47 -2 44
-16 67 -35 55 -8 -5 -7 -12 5 -25 10 -11 15 -25 12 -32 -4 -8 -6 -7 -6 5 -1
10 -9 17 -21 17 -11 0 -20 5 -20 11 0 5 -5 7 -11 4 -6 -4 -8 -13 -5 -21 8 -21
-11 -27 -23 -7 -10 19 -11 19 -27 -35 -2 -7 -8 -11 -12 -8 -5 3 -7 -7 -6 -22
l4 -27 -10 26 c-14 35 30 148 165 414 145 287 246 451 426 690 125 167 171
211 273 259 50 24 118 66 151 92 157 129 360 268 690 475 616 386 1015 543
2160 849 88 23 201 56 250 72 125 41 381 167 495 243 87 58 296 229 329 268
16 20 26 23 15 5z m6929 -106 c13 -12 41 -28 62 -35 43 -15 68 -48 80 -104 l6
-32 -43 14 c-24 7 -69 21 -100 29 -31 9 -64 23 -72 32 -19 19 -22 134 -5 184
l12 33 19 -50 c10 -27 28 -59 41 -71z m-12723 49 c0 -5 -7 -14 -15 -21 -8 -7
-15 -18 -15 -26 0 -17 37 -37 56 -30 10 4 23 -11 42 -50 25 -51 26 -57 12 -82
-20 -36 -118 -84 -184 -90 l-51 -4 -23 89 c-37 141 -59 171 -125 174 -18 0
-16 3 11 15 28 12 119 23 270 33 12 0 22 -3 22 -8z m6260 -59 c39 -58 306
-320 400 -392 94 -73 163 -137 181 -172 10 -20 10 -21 -2 -12 -8 6 -22 10 -32
9 -13 -3 -16 1 -12 14 4 15 0 18 -20 16 -14 -2 -25 1 -25 6 0 5 -7 9 -16 9
-11 0 -14 -6 -9 -22 4 -13 9 -31 11 -40 10 -36 -24 -15 -132 82 -108 95 -233
232 -323 353 -24 31 -46 57 -50 57 -3 0 -16 -17 -28 -38 -12 -21 -61 -83 -109
-138 -104 -118 -359 -375 -371 -373 -24 6 -123 -56 -151 -94 -23 -30 -62 -67
-72 -67 -6 0 -10 -6 -10 -14 0 -8 -6 -16 -12 -19 -10 -3 -9 -8 2 -23 14 -17
14 -18 -1 -6 -14 10 -18 10 -23 -4 -8 -21 4 -40 15 -23 4 7 10 11 13 8 3 -3
-9 -23 -28 -45 -18 -21 -60 -86 -92 -144 -93 -166 -75 -92 27 112 99 199 157
303 201 360 16 20 85 87 154 149 156 139 368 350 430 429 26 33 50 60 53 60 3
0 17 -17 31 -38z m-7813 -44 c-3 -7 -5 -2 -5 12 0 14 2 19 5 13 2 -7 2 -19 0
-25z m14063 -78 c13 -28 30 -56 37 -62 7 -6 13 -14 13 -18 0 -8 -101 -33 -107
-26 -3 2 -7 22 -10 44 -6 45 12 112 31 112 7 0 23 -23 36 -50z m-12902 -119
c54 -26 104 -46 216 -86 l50 -18 -30 -23 c-43 -35 -84 -39 -161 -15 -123 38
-153 67 -184 178 l-18 65 35 -36 c19 -20 61 -49 92 -65z m6649 -39 c12 -26 18
-48 13 -50 -6 -2 -10 -11 -10 -20 -1 -15 -2 -15 -11 1 -15 25 -27 21 -43 -15
-7 -18 -39 -62 -70 -97 -31 -36 -56 -69 -56 -74 0 -5 -6 -7 -13 -4 -8 3 -27
-7 -43 -21 -16 -15 -51 -38 -78 -52 -26 -13 -51 -30 -53 -37 -3 -7 -10 -13
-17 -13 -6 0 -46 -36 -89 -80 -43 -44 -83 -80 -88 -80 -5 0 -9 -3 -9 -7 0 -5
-13 -16 -28 -27 -28 -19 187 197 318 319 112 105 198 204 223 257 12 26 24 47
27 48 3 0 15 -21 27 -48z m1603 -72 c20 -6 21 -8 5 -8 -11 0 -31 4 -45 8 -20
6 -21 8 -5 8 11 0 31 -4 45 -8z m67 -16 c-3 -3 -12 -4 -19 -1 -8 3 -5 6 6 6
11 1 17 -2 13 -5z m-3470 -40 c-3 -3 -12 -4 -19 -1 -8 3 -5 6 6 6 11 1 17 -2
13 -5z m2365 -183 c8 11 9 11 6 1 -4 -16 -22 -18 -24 -3 -2 8 -1 7 3 0 4 -8 8
-7 15 2z m-1452 -38 c-1 -42 -21 -103 -99 -298 -92 -230 -111 -281 -111 -291
0 -5 -109 -40 -243 -78 -844 -241 -1299 -447 -1918 -872 -268 -184 -588 -456
-827 -703 -56 -58 -107 -105 -113 -103 -6 1 -8 -2 -5 -7 3 -5 -8 -24 -24 -42
-16 -19 -30 -37 -30 -41 0 -5 -4 -8 -10 -8 -5 0 -1 16 10 35 11 19 15 35 10
35 -6 0 -10 7 -10 15 0 26 -30 16 -41 -12 -9 -24 -12 -26 -22 -12 -14 18 -69
19 -75 1 -2 -7 4 -22 14 -33 19 -21 19 -21 -65 -23 -36 -1 -58 -26 -23 -26 11
0 26 -8 33 -17 8 -9 9 -14 3 -10 -7 4 -17 0 -24 -8 -9 -11 -16 -12 -25 -5 -9
8 -15 7 -18 -2 -4 -8 -6 -7 -6 5 -1 13 -10 17 -45 17 -25 0 -48 -4 -51 -10 -3
-5 -33 -10 -66 -10 -46 0 -59 -3 -59 -15 0 -10 10 -15 31 -15 18 0 28 -4 24
-10 -4 -6 -10 -8 -15 -5 -14 8 -38 -5 -43 -24 -5 -21 -46 -31 -128 -31 -49 0
-59 3 -60 18 -1 16 -2 16 -6 0 -5 -22 -33 -24 -33 -3 0 9 -6 12 -17 8 -11 -4
-14 -3 -9 5 10 17 -3 15 -21 -3 -8 -8 -19 -13 -24 -10 -13 9 -11 -19 3 -33 16
-16 2 -28 -16 -13 -12 10 -15 8 -18 -9 -2 -11 -7 -20 -12 -20 -13 2 -26 -22
-26 -49 0 -16 -4 -21 -14 -18 -8 3 -17 0 -20 -8 -3 -8 0 -15 7 -18 7 -2 2 -9
-11 -16 -12 -6 -22 -18 -22 -26 0 -8 -4 -15 -10 -15 -5 0 -7 -6 -4 -13 2 -7 0
-24 -6 -38 -8 -20 -9 -17 -6 21 6 75 138 369 247 551 219 365 548 743 896
1031 299 247 602 446 985 643 417 214 800 357 1338 499 77 20 374 87 640 144
25 6 78 10 118 11 l72 1 0 -37z m1955 2 c392 -57 832 -162 1245 -297 429 -139
985 -407 1315 -633 287 -196 637 -511 835 -750 41 -49 83 -99 93 -110 10 -11
37 -45 60 -75 22 -30 46 -59 52 -65 22 -20 55 -82 47 -90 -4 -5 -2 -6 3 -3 6
3 18 -5 28 -18 10 -13 13 -24 7 -24 -6 0 -8 -5 -5 -10 4 -6 10 -8 14 -5 5 2 9
-7 9 -20 0 -14 -6 -25 -12 -26 -6 0 -2 -4 9 -8 14 -6 22 -4 27 8 6 13 7 12 5
-4 -2 -13 -9 -19 -20 -17 -10 2 -17 -4 -17 -14 0 -10 -5 -14 -15 -10 -10 3
-15 -1 -16 -12 -1 -16 -2 -16 -6 1 -2 9 -9 15 -14 11 -6 -3 -18 0 -27 8 -15
11 -15 11 -5 -2 19 -25 -1 -42 -56 -48 -43 -4 -52 -8 -57 -27 -4 -17 -11 -21
-30 -17 -13 2 -24 8 -24 13 0 5 -13 9 -29 9 -23 0 -31 6 -40 31 -8 24 -15 29
-30 24 -11 -3 -22 -1 -26 5 -3 5 -16 10 -29 10 -12 0 -27 5 -34 12 -6 6 -20
13 -31 15 -14 2 -20 -5 -25 -31 -4 -19 -12 -37 -19 -39 -9 -3 -7 -9 4 -18 26
-22 29 -44 8 -57 -21 -14 -25 -3 -6 17 8 9 8 12 0 7 -6 -3 -14 0 -16 6 -3 7
-6 4 -6 -7 -1 -15 -21 1 -86 65 -47 47 -85 90 -85 97 0 7 -4 12 -9 10 -5 -1
-26 16 -48 38 -210 217 -601 535 -853 694 -463 291 -801 440 -1455 641 -53 16
-428 108 -490 120 -122 23 -201 60 -129 60 14 0 23 -4 19 -10 -3 -5 2 -10 12
-10 14 0 19 7 18 29 0 20 -4 27 -13 23 -12 -4 -12 -1 -1 16 16 25 3 44 -33 49
-13 2 -33 15 -46 31 -19 23 -24 25 -32 12 -9 -14 -8 -28 5 -77 3 -10 -2 -3
-10 16 -9 18 -14 40 -11 47 3 8 2 14 -3 14 -9 0 -83 221 -120 358 l-20 74 22
-5 c12 -3 103 -18 202 -32z m-970 -17 l40 -41 -42 34 c-24 19 -43 37 -43 42 0
12 4 9 45 -35z m82 -72 c15 -13 25 -27 22 -30 -3 -3 -21 8 -40 24 -19 16 -29
29 -22 30 7 0 25 -11 40 -24z m-220 -193 c-26 -51 -80 -133 -84 -129 -6 6 69
136 80 136 4 0 6 -3 4 -7z m613 -73 c0 -11 -2 -20 -5 -20 -2 0 -9 9 -15 20 -9
16 -8 20 5 20 8 0 15 -9 15 -20z m7054 -102 c3 -50 6 -2249 7 -4887 0 -2638 4
-4965 9 -5171 8 -364 -3 -800 -21 -768 -4 7 -12 76 -18 153 -14 166 -51 356
-92 480 -28 83 -119 291 -157 360 -16 28 -17 347 -20 4578 -1 2612 1 4592 6
4650 9 94 15 116 81 277 91 220 182 420 191 420 4 0 10 -41 14 -92z m-8391 22
c-3 -11 0 -20 6 -20 7 0 4 -8 -6 -19 -19 -19 -103 -38 -103 -22 0 14 91 92
100 86 5 -3 6 -14 3 -25z m-6891 -42 c14 -35 84 -182 154 -328 l129 -265 0
-4570 0 -4570 -22 -59 c-12 -32 -61 -130 -109 -218 -133 -245 -152 -301 -179
-533 -8 -71 -19 -143 -25 -160 -9 -28 -9 -27 -4 10 25 202 27 568 31 5455 2
2797 0 5133 -5 5193 -4 59 -5 107 -2 107 4 0 18 -28 32 -62z m8091 15 c-7 -2
-19 -2 -25 0 -7 3 -2 5 12 5 14 0 19 -2 13 -5z m472 -53 c3 -5 2 -10 -4 -10
-5 0 -13 5 -16 10 -3 6 -2 10 4 10 5 0 13 -4 16 -10z m-8718 -97 c-3 -10 -5
-4 -5 12 0 17 2 24 5 18 2 -7 2 -21 0 -30z m7829 -24 c14 -29 50 -88 79 -133
29 -45 101 -157 160 -251 59 -93 235 -361 390 -595 289 -435 359 -550 625
-1030 84 -151 187 -336 230 -410 42 -74 94 -166 115 -205 21 -38 82 -142 135
-230 53 -88 171 -290 262 -450 91 -159 254 -438 362 -618 108 -180 196 -330
196 -332 0 -3 19 -35 43 -72 51 -82 80 -144 82 -181 1 -15 5 -47 9 -72 3 -25
3 -39 0 -32 -10 20 -24 13 -24 -12 0 -34 10 -57 22 -50 6 4 5 -4 -2 -16 -10
-19 -9 -25 9 -41 13 -12 21 -15 21 -7 0 6 7 3 15 -8 14 -18 16 -18 28 -2 13
16 16 15 39 -10 95 -103 140 -190 217 -420 62 -188 76 -242 90 -357 7 -49 14
-102 16 -117 3 -16 0 -28 -5 -28 -6 0 -10 7 -10 15 0 8 -5 15 -10 15 -6 0 -15
10 -20 23 -6 15 -9 17 -9 6 -1 -9 -9 -20 -18 -25 -28 -12 -73 -13 -73 -1 0 6
-8 20 -18 31 -14 16 -24 62 -41 181 -46 341 -49 355 -49 295 -1 -55 12 -186
24 -247 4 -20 2 -33 -4 -33 -10 0 -23 46 -24 86 -1 39 -128 88 -128 50 0 -8 6
-17 13 -19 9 -4 9 -8 -2 -15 -8 -6 -12 -20 -9 -37 4 -19 2 -25 -8 -21 -7 3
-15 0 -17 -7 -2 -7 -7 6 -11 28 -4 22 -16 76 -28 120 -11 44 -21 92 -22 107 0
14 -3 24 -6 22 -8 -8 -30 80 -24 99 3 9 1 17 -4 17 -5 0 -29 57 -52 128 -85
256 -267 691 -367 877 -53 99 -288 500 -522 892 -477 796 -562 941 -641 1088
-30 57 -67 118 -82 136 -36 47 -148 263 -198 383 -64 154 -112 242 -195 360
-212 304 -442 516 -558 516 -84 0 -274 -155 -531 -436 -108 -118 -154 -180
-212 -290 -41 -80 -163 -345 -224 -489 -58 -138 -104 -227 -216 -422 -53 -93
-133 -233 -177 -313 -111 -200 -413 -718 -479 -820 -165 -258 -411 -729 -548
-1050 -116 -273 -261 -664 -285 -770 -8 -33 -9 -34 -15 -10 -4 15 -1 30 7 38
14 15 17 35 6 46 -4 4 -8 21 -9 38 -2 34 12 26 19 -12 2 -14 3 -7 1 14 -3 41
-19 59 -46 50 -10 -3 -19 2 -23 15 -6 20 -6 20 -28 -2 -20 -20 -22 -20 -25 -4
-2 9 -9 17 -15 17 -7 0 -4 5 6 11 9 5 17 18 17 27 0 15 -2 15 -10 2 -5 -8 -10
-11 -10 -7 0 12 32 71 42 78 5 3 9 9 8 13 -6 18 11 67 21 61 6 -5 10 0 8 11
-2 11 12 57 30 103 17 46 30 85 28 88 -21 20 -285 -522 -374 -767 -84 -231
-113 -362 -120 -550 -15 -397 89 -680 337 -914 238 -224 520 -337 935 -376
394 -36 872 40 1169 186 205 102 358 209 505 353 50 49 91 87 91 84 0 -3 -18
-39 -41 -80 -115 -209 -437 -452 -765 -577 -120 -45 -345 -102 -482 -120 -306
-43 -747 1 -1035 100 -128 45 -294 127 -395 196 -156 107 -321 298 -412 478
-131 259 -172 623 -104 916 49 215 161 467 299 678 60 91 269 426 294 469 9
16 54 90 100 165 47 76 175 286 286 467 111 182 232 380 270 440 67 108 215
363 215 370 0 2 48 87 107 187 139 239 327 570 388 683 26 50 105 191 175 315
70 124 161 286 202 360 80 145 248 416 303 490 53 72 288 440 463 725 66 107
198 348 207 375 4 11 8 20 11 20 2 0 15 -23 30 -51z m3459 -57 c-6 -7 -35 18
-35 31 0 5 9 2 20 -8 11 -10 18 -20 15 -23z m-2520 -21 c26 -6 31 -9 15 -9
-14 -1 -43 3 -65 7 -26 6 -31 9 -15 9 14 1 43 -3 65 -7z m6852 -6383 c-1
-1173 -2 -216 -2 2127 0 2343 1 3303 2 2133 2 -1169 2 -3086 0 -4260z m-6754
6365 c-7 -2 -21 -2 -30 0 -10 3 -4 5 12 5 17 0 24 -2 18 -5z m-8866 -100 c-2
-21 -4 -6 -4 32 0 39 2 55 4 38 2 -18 2 -50 0 -70z m9163 51 c193 -38 473
-108 499 -125 13 -8 11 -9 -9 -4 -14 3 -86 22 -160 41 -74 19 -232 54 -350 79
-274 56 -264 53 -205 48 28 -2 129 -20 225 -39z m2350 -38 c0 -9 -30 -14 -35
-6 -4 6 3 10 14 10 12 0 21 -2 21 -4z m-3057 -51 c898 -98 1757 -383 2346
-777 602 -404 1013 -818 1414 -1428 332 -506 552 -1013 706 -1629 30 -119 44
-278 22 -255 -5 5 -43 125 -85 266 -114 385 -170 539 -311 853 -159 356 -390
741 -652 1091 -443 591 -1080 1093 -1748 1379 -486 207 -1076 362 -1678 440
-163 21 -180 25 -204 49 l-26 26 37 0 c20 0 101 -7 179 -15z m-8456 -157 c-2
-29 -3 -8 -3 47 0 55 1 79 3 53 2 -26 2 -71 0 -100z m7353 134 c0 -28 -47 -43
-220 -72 -479 -79 -808 -158 -1145 -273 -694 -237 -1210 -559 -1736 -1086
-266 -267 -408 -446 -602 -756 -141 -226 -401 -724 -510 -975 -153 -354 -292
-763 -377 -1115 -23 -93 -46 -174 -51 -179 -10 -11 -15 53 -11 139 11 227 200
796 425 1282 352 758 728 1313 1179 1743 610 580 1372 973 2277 1175 203 45
477 94 616 110 142 16 155 17 155 7z m-6340 -90 c0 -18 -5 -43 -12 -55 -20
-39 -81 -113 -75 -92 3 11 9 38 13 60 4 21 18 63 32 93 26 58 42 56 42 -6z
m8745 48 c13 -5 14 -9 5 -9 -8 0 -24 4 -35 9 -13 5 -14 9 -5 9 8 0 24 -4 35
-9z m-3875 -79 c-8 -5 -26 -11 -40 -15 -21 -5 -20 -3 5 9 32 15 60 20 35 6z
m-80 -30 c-8 -5 -26 -11 -40 -15 -21 -5 -20 -3 5 9 32 15 60 20 35 6z m-90
-35 c-14 -7 -36 -16 -50 -20 -14 -3 -7 3 15 14 45 22 74 27 35 6z m4455 -6 c3
-6 -1 -7 -9 -4 -18 7 -21 14 -7 14 6 0 13 -4 16 -10z m-10168 -6997 c-1 -1281
-2 -233 -2 2327 0 2560 1 3608 2 2328 2 -1281 2 -3375 0 -4655z m5603 6957
c-8 -5 -19 -10 -25 -10 -5 0 -3 5 5 10 8 5 20 10 25 10 6 0 3 -5 -5 -10z
m4686 -16 c18 -14 18 -14 -6 -3 -31 14 -36 19 -24 19 6 0 19 -7 30 -16z m1973
-40 c14 -12 -19 -1 -35 12 -18 14 -18 14 6 3 14 -6 27 -13 29 -15z m-11426
-81 c3 -43 9 -89 12 -103 4 -14 -10 0 -34 35 -22 33 -41 63 -41 68 0 10 44 77
51 77 4 0 9 -35 12 -77z m9593 51 c18 -14 18 -14 -6 -3 -31 14 -36 19 -24 19
6 0 19 -7 30 -16z m-2619 -866 c-11 -1084 -36 -1501 -133 -2178 -35 -249 -71
-459 -99 -580 -50 -223 -168 -571 -307 -910 -51 -124 -106 -354 -117 -490 -6
-71 -6 -119 0 -125 5 -5 8 -27 8 -50 l-2 -40 -7 40 -7 40 -2 -40 c-1 -22 -6
-47 -11 -55 -7 -11 -8 -5 -3 20 6 30 4 33 -9 23 -8 -7 -18 -10 -21 -7 -3 4
-18 4 -32 0 -23 -6 -25 -11 -25 -62 0 -53 -2 -56 -30 -67 -21 -8 -30 -18 -30
-34 0 -22 -4 -23 -72 -24 -88 -2 -101 0 -109 13 -4 7 -9 6 -13 -1 -4 -6 -16
-11 -27 -11 -11 0 -19 -7 -20 -17 0 -14 -2 -15 -6 -3 -3 8 -14 23 -24 33 -15
14 -19 15 -19 3 0 -8 8 -22 17 -32 11 -11 13 -16 4 -13 -7 3 -23 23 -35 46
-20 37 -24 39 -34 23 -8 -14 -7 -22 4 -36 14 -18 14 -18 4 4 -6 12 -7 22 -1
22 10 0 36 -60 40 -90 2 -17 78 -90 85 -82 4 3 4 -1 1 -9 -15 -40 308 -313
504 -426 57 -33 104 -64 105 -69 0 -5 -15 -18 -35 -28 l-36 -19 -89 48 c-261
141 -451 308 -585 515 -109 168 -242 481 -314 740 -26 91 -48 170 -50 175 -2
6 -2 -80 -1 -190 3 -207 23 -438 37 -429 5 3 19 -17 31 -43 47 -101 225 -405
286 -489 37 -52 39 -58 12 -49 -14 5 -20 2 -20 -9 0 -20 -15 -21 -32 -3 -10
11 -16 9 -35 -11 -27 -29 -26 -27 -12 -53 5 -11 14 -17 20 -14 5 4 9 -3 9 -15
0 -11 7 -23 15 -26 8 -4 15 -12 15 -18 0 -19 99 -100 197 -161 48 -31 88 -60
88 -66 0 -29 -400 -148 -504 -150 -44 -1 -50 -4 -39 -16 10 -13 4 -14 -47 -8
-263 31 -498 148 -701 349 -143 143 -239 306 -306 516 -21 69 -23 92 -23 290
1 196 4 232 33 410 18 107 40 229 49 270 8 41 15 92 14 112 0 27 3 36 13 32
16 -6 35 56 34 112 0 23 5 50 11 60 10 15 11 -1 6 -76 -8 -138 -11 -162 -56
-417 -62 -358 -70 -678 -20 -786 l20 -42 -6 102 c-4 66 -2 107 5 115 5 7 15
74 22 148 16 193 67 407 158 655 22 61 77 214 122 340 137 386 203 544 463
1115 224 495 252 552 391 820 76 146 227 445 336 665 264 531 385 739 567 968
126 159 317 327 372 327 11 0 13 -91 8 -582z m164 539 c77 -69 287 -340 387
-498 100 -158 246 -418 293 -519 25 -52 98 -201 164 -329 66 -129 119 -237
118 -240 -1 -3 -6 -7 -12 -9 -7 -2 -8 3 -4 14 5 13 3 15 -7 9 -9 -5 -11 -4 -6
3 9 15 -22 75 -34 67 -6 -3 -7 1 -4 9 6 17 -22 76 -37 76 -6 0 -7 4 -4 10 3 5
1 19 -6 32 -11 20 -13 20 -24 5 -11 -16 -12 -15 -12 8 0 13 3 22 8 19 5 -3 9
-1 9 4 0 6 -7 12 -15 16 -8 3 -15 13 -15 22 0 13 -3 14 -15 4 -12 -10 -15 -10
-15 4 0 9 5 16 11 16 5 0 7 5 4 10 -5 8 -11 7 -21 -1 -11 -9 -14 -7 -14 14 0
14 -6 28 -12 30 -8 3 -5 6 5 6 10 1 15 6 12 11 -4 6 -11 8 -16 4 -6 -3 -9 0
-7 7 1 8 -2 16 -7 18 -20 9 -35 30 -35 50 0 13 -6 21 -16 21 -10 0 -14 6 -10
15 3 8 1 15 -4 15 -6 0 -10 7 -10 16 0 8 -3 13 -7 11 -5 -3 -9 6 -9 20 -1 13
-12 35 -24 48 -22 23 -35 75 -18 75 5 0 7 4 4 8 -3 5 -15 8 -28 6 -13 -1 -35
-3 -50 -3 -18 -1 -28 -7 -28 -16 0 -17 -16 -20 -25 -5 -4 6 -12 4 -22 -5 -8
-9 -18 -13 -21 -10 -4 3 0 10 7 15 12 7 12 11 -2 24 -21 22 -26 20 -20 -6 4
-20 3 -21 -7 -5 -6 9 -17 17 -25 17 -12 0 -12 -6 -2 -36 7 -19 17 -35 21 -34
10 2 26 -20 26 -35 0 -5 -5 -3 -10 5 -6 10 -10 11 -10 3 0 -16 223 -687 277
-833 164 -443 192 -503 192 -415 0 20 -1 20 -8 1 -7 -19 -8 -18 -14 4 -7 29 2
47 15 29 7 -10 8 -2 4 23 -2 21 0 40 6 44 6 4 8 23 4 46 l-7 40 60 -5 c45 -3
61 -1 65 9 3 8 17 14 30 14 18 0 24 -4 20 -15 -4 -8 -1 -15 5 -15 6 0 11 11
11 24 0 13 7 29 15 36 14 11 19 7 16 -12 0 -5 3 -8 9 -8 5 0 10 -10 10 -22 0
-38 22 -4 25 38 2 22 1 33 -2 26 -7 -19 -23 -4 -23 23 0 12 -14 49 -30 81 -17
32 -28 64 -26 71 6 14 -19 61 -38 75 -6 4 -7 10 -4 14 10 10 -11 46 -22 39 -6
-3 -7 1 -4 10 4 8 1 22 -6 30 -7 8 -8 15 -3 15 5 0 22 -26 39 -57 17 -32 63
-116 104 -188 40 -71 83 -148 95 -170 13 -22 48 -85 80 -140 31 -55 81 -152
112 -215 258 -542 350 -701 511 -879 102 -113 151 -188 237 -359 76 -153 124
-261 171 -392 148 -406 201 -652 211 -965 5 -175 4 -196 -16 -270 -27 -99 -73
-184 -161 -300 -126 -166 -222 -237 -452 -339 -46 -20 -63 -21 -46 -2 7 8 15
13 18 13 3 -1 5 0 6 3 0 3 7 16 14 30 22 39 21 53 -1 47 -32 -8 -22 -1 38 29
106 53 171 145 209 294 29 113 12 279 -58 558 -35 146 -39 169 -29 207 13 53
15 332 2 340 -5 3 -7 31 -4 62 4 35 3 54 -4 50 -5 -3 -8 5 -6 21 2 15 0 45 -5
67 -10 39 -10 39 -12 -25 -2 -58 -3 -62 -13 -37 -6 15 -16 27 -23 27 -11 0
-21 31 -30 99 -3 19 -9 40 -14 46 -6 7 -7 14 -5 17 3 3 -6 16 -20 29 -13 13
-25 34 -25 46 0 12 -6 26 -13 30 -7 4 -19 27 -27 51 -25 78 -33 61 -24 -49 28
-331 -4 -608 -111 -945 -45 -140 -67 -190 -118 -277 -192 -319 -349 -470 -636
-611 -119 -58 -221 -84 -286 -72 -47 9 -210 94 -290 151 -130 93 -260 240
-327 371 -49 95 -132 340 -126 375 3 20 3 20 38 -3 19 -13 62 -35 95 -48 33
-13 73 -35 88 -49 37 -33 110 -144 137 -205 22 -53 60 -110 67 -103 2 3 -5 22
-17 43 l-20 39 21 18 c31 25 24 53 -79 293 -152 352 -197 491 -248 764 -35
190 -47 594 -33 1145 9 376 -3 1809 -16 1885 l-4 25 11 -25 c7 -14 18 -29 25
-33 7 -4 13 -17 13 -27 0 -22 17 -35 23 -18 6 20 56 -11 63 -39 5 -19 8 -20
19 -9 11 11 7 40 -26 171 -21 86 -54 241 -74 344 -19 103 -42 202 -52 221 -14
30 -17 76 -21 312 -3 157 -1 278 4 278 5 0 25 -15 45 -33z m1983 -58 c14 -11
26 -29 26 -40 0 -25 -14 -24 -33 4 -14 21 -15 21 -34 5 -15 -14 -22 -15 -31
-6 -9 9 -7 17 10 35 26 28 29 28 62 2z m-4088 -35 c8 -30 -16 -60 -40 -51 -21
8 -20 36 1 59 22 25 31 23 39 -8z m864 -262 c0 -13 -69 -47 -165 -82 -348
-124 -854 -372 -873 -428 -8 -24 36 -11 149 42 154 73 432 186 565 231 105 35
235 68 242 61 11 -12 -76 -61 -190 -106 -353 -140 -548 -228 -748 -338 -483
-266 -882 -647 -1228 -1172 -125 -190 -142 -219 -227 -390 -144 -287 -209
-447 -304 -750 -120 -381 -109 -353 -148 -372 l-35 -17 4 152 c4 131 9 169 38
277 29 110 51 160 180 415 211 417 358 669 536 916 126 175 161 216 434 495
135 137 306 314 380 391 88 92 159 156 205 186 89 56 511 260 681 328 162 65
297 110 502 168 1 1 2 -3 2 -7z m2301 -48 c147 -47 489 -189 645 -267 49 -24
148 -70 219 -102 147 -66 314 -175 389 -255 40 -43 47 -56 44 -81 -4 -26 1
-34 46 -67 131 -95 320 -273 480 -452 238 -267 401 -504 644 -940 241 -433
282 -510 282 -535 0 -14 -8 -40 -17 -58 -9 -18 -36 -77 -59 -132 -23 -55 -45
-93 -47 -85 -2 8 -10 44 -17 79 -92 495 -484 1220 -907 1679 -136 148 -574
494 -744 588 -315 175 -383 212 -453 246 -93 47 -297 130 -448 183 -121 42
-170 71 -104 60 100 -16 366 -120 565 -219 119 -60 331 -149 338 -142 11 10
-33 59 -71 78 -23 12 -88 50 -146 86 -183 113 -455 236 -727 327 -45 16 -84
34 -87 41 -9 23 24 17 175 -32z m3686 -156 c-3 -8 -6 -5 -6 6 -1 11 2 17 5 13
3 -3 4 -12 1 -19z m53 9 c0 -7 -9 -13 -20 -14 -11 -1 -20 4 -20 13 0 8 9 14
20 14 11 0 20 -6 20 -13z m290 -171 c22 -46 40 -87 40 -92 0 -14 -26 28 -38
61 -6 17 -11 22 -11 13 -1 -9 -6 -20 -12 -24 -7 -4 -9 0 -5 12 3 11 1 33 -4
49 -10 30 -10 30 -6 2 5 -39 -16 -29 -27 13 -6 24 -5 35 5 41 7 5 14 9 15 9 2
0 21 -38 43 -84z m-417 59 c-3 -9 -8 -14 -10 -11 -3 3 -2 9 2 15 9 16 15 13 8
-4z m-43 -32 c0 -13 -3 -13 -15 -3 -8 7 -15 19 -15 27 0 13 3 13 15 3 8 -7 15
-19 15 -27z m67 -15 c-3 -7 -5 -2 -5 12 0 14 2 19 5 13 2 -7 2 -19 0 -25z
m-6097 6 c0 -3 -15 -24 -34 -47 -18 -23 -50 -68 -71 -99 -40 -61 -49 -68 -59
-43 -4 12 -24 15 -93 14 -135 -2 -151 -12 -43 -27 129 -17 140 -34 95 -144
-47 -115 -81 -126 -157 -51 l-47 47 -82 -11 c-72 -10 -89 -16 -150 -58 -66
-45 -88 -73 -74 -95 4 -6 2 -16 -3 -23 -20 -24 -23 -121 -8 -207 19 -106 19
-110 1 -110 -12 0 -15 -15 -15 -74 l0 -75 35 37 c64 68 85 97 96 132 15 47 54
116 97 168 31 39 62 60 101 68 8 1 24 15 36 30 16 20 26 25 43 20 17 -6 21 -4
16 7 -3 8 2 17 11 21 20 7 14 -15 -21 -79 -25 -44 -42 -61 -30 -29 3 9 2 12
-5 9 -5 -4 -7 -14 -4 -24 3 -11 -28 -74 -81 -167 -115 -199 -165 -289 -193
-346 -12 -27 -25 -48 -28 -48 -3 0 -3 6 0 13 3 8 -1 14 -8 14 -10 0 -11 -5 -4
-19 9 -16 -3 -58 -16 -58 -15 0 -35 15 -35 26 0 19 -35 18 -55 -2 -24 -24 -29
-10 -10 28 27 51 47 71 57 56 6 -8 6 1 2 22 -4 19 -6 49 -5 65 1 17 -3 39 -8
50 -5 11 -18 54 -27 95 -12 48 -20 66 -22 51 -2 -13 1 -43 7 -67 6 -23 11 -55
11 -70 l0 -27 -19 24 c-33 43 -80 147 -102 225 -18 67 -20 85 -10 132 15 74
51 151 106 223 24 32 39 59 32 59 -18 0 -316 -180 -389 -236 -240 -183 -539
-494 -719 -747 -171 -242 -221 -336 -386 -722 -110 -258 -194 -511 -242 -730
-49 -225 -64 -491 -36 -629 25 -120 88 -262 149 -335 20 -24 36 -51 36 -61 0
-32 18 -32 25 0 4 16 36 82 72 147 73 131 142 258 291 533 152 282 199 367
256 465 29 50 97 169 152 265 54 96 155 265 224 375 174 276 212 343 286 506
35 78 77 165 94 193 43 76 170 203 170 170 0 -3 -26 -31 -57 -63 -32 -32 -79
-92 -105 -133 -59 -96 -153 -327 -138 -342 7 -7 10 -6 10 3 0 8 6 11 15 7 10
-3 15 1 15 11 0 9 3 13 7 10 7 -7 25 20 44 65 6 16 16 25 22 21 6 -4 8 2 5 15
-4 12 -2 20 2 17 5 -3 12 0 16 6 4 8 11 4 19 -12 l13 -24 17 36 c9 19 26 41
37 48 l21 13 -20 -29 c-12 -15 -30 -44 -41 -63 -76 -134 -188 -311 -216 -340
-18 -19 -51 -62 -73 -95 -41 -61 -163 -272 -163 -281 0 -11 -155 -294 -235
-429 -91 -153 -92 -157 -188 -330 -36 -66 -109 -190 -161 -275 -110 -178 -213
-381 -249 -490 -49 -147 -89 -255 -100 -265 -7 -7 -8 -6 -3 3 4 7 5 21 1 32
-7 22 -34 16 -36 -9 -1 -14 -2 -14 -6 2 -2 9 -8 17 -12 17 -13 0 -21 -65 -21
-162 0 -52 -4 -88 -10 -88 -5 0 -10 12 -10 26 0 39 -85 187 -124 215 -4 4 -3
29 3 57 8 39 7 61 -3 99 -8 26 -26 111 -41 188 -15 77 -42 218 -61 313 -37
183 -37 182 -3 332 10 47 33 148 49 225 58 263 138 514 227 705 49 106 219
426 286 540 117 197 337 486 529 693 230 249 586 523 818 630 47 21 96 49 110
61 37 34 288 131 430 167 69 17 132 35 140 40 18 10 30 11 30 3z m2560 -24
c36 -12 115 -42 177 -66 62 -24 119 -44 126 -44 39 0 434 -194 536 -262 44
-30 197 -145 330 -248 173 -135 480 -439 590 -585 261 -345 524 -875 606
-1220 33 -136 115 -647 115 -713 0 -29 -4 -60 -9 -70 -6 -9 -13 -39 -18 -67
-6 -39 -9 -12 -14 125 -9 244 -52 479 -150 820 -78 269 -138 417 -272 670
-201 379 -479 722 -782 964 -202 161 -530 367 -510 319 43 -98 50 -131 50
-238 0 -108 -1 -111 -38 -180 -49 -92 -89 -135 -128 -135 -16 0 -29 -3 -29 -7
0 -18 62 -114 81 -126 45 -27 526 -828 849 -1412 73 -132 152 -274 175 -315
24 -41 71 -127 105 -190 35 -63 73 -128 85 -145 40 -54 58 -98 91 -220 18 -66
64 -213 103 -327 88 -259 110 -362 118 -548 5 -124 2 -162 -16 -260 -73 -385
-170 -592 -370 -790 -216 -213 -567 -387 -931 -461 -104 -21 -141 -24 -390
-24 -304 0 -357 7 -619 71 -332 82 -602 220 -730 374 -50 59 -149 246 -137
257 4 4 41 -28 84 -71 121 -122 355 -267 540 -335 288 -106 716 -161 1037
-132 142 12 392 65 495 104 301 113 546 329 682 602 94 188 136 352 145 561 7
168 -3 262 -57 531 -22 111 -45 247 -50 303 -13 124 -40 215 -89 300 -21 36
-64 110 -96 165 -31 55 -99 172 -149 260 -51 88 -115 201 -141 250 -27 50 -94
167 -148 260 -55 94 -152 260 -217 370 -140 239 -151 258 -250 405 -92 138
-441 696 -498 796 -22 40 -79 139 -128 220 -160 272 -172 293 -190 341 -9 26
-21 52 -26 58 -12 14 -10 27 5 20 6 -4 5 0 -3 7 -14 13 -40 53 -40 62 0 7 28
0 100 -24z m2966 -42 c-1 -13 4 -22 12 -20 6 1 12 -6 12 -15 0 -14 -5 -12 -27
10 -24 23 -26 29 -13 37 8 5 15 10 16 10 0 0 0 -10 0 -22z m267 15 c-7 -2 -21
-2 -30 0 -10 3 -4 5 12 5 17 0 24 -2 18 -5z m-193 -68 c0 -7 -30 -13 -34 -7
-3 4 4 9 15 9 10 1 19 0 19 -2z m-2 -50 c-3 -3 -9 2 -12 12 -6 14 -5 15 5 6 7
-7 10 -15 7 -18z m-8648 -41 c0 -14 -4 -23 -9 -19 -5 3 -12 -5 -14 -17 -3 -18
-5 -16 -6 8 0 16 4 35 11 42 17 17 18 16 18 -14z m-46 -69 c-3 -8 -14 -17 -24
-20 -12 -4 -17 -12 -14 -23 4 -12 3 -13 -3 -4 -5 7 -9 23 -8 35 2 16 8 21 24
20 18 -2 21 1 16 25 -5 25 -5 25 4 4 6 -12 8 -29 5 -37z m5056 37 c0 -5 -13
-7 -30 -4 -16 2 -30 6 -30 8 0 2 14 4 30 4 17 0 30 -4 30 -8z m23 -77 c-3 -9
-8 -14 -10 -11 -3 3 -2 9 2 15 9 16 15 13 8 -4z m-5139 -21 c3 -8 2 -12 -4 -9
-6 3 -10 10 -10 16 0 14 7 11 14 -7z m-54 -89 c-13 -14 -26 -23 -28 -20 -6 6
41 53 47 48 3 -2 -6 -14 -19 -28z m191 -28 c-10 -9 -11 -8 -5 6 3 10 9 15 12
12 3 -3 0 -11 -7 -18z m-1021 -31 c0 -3 -4 -8 -10 -11 -5 -3 -10 -1 -10 4 0 6
5 11 10 11 6 0 10 -2 10 -4z m765 -26 c-3 -5 -12 -10 -18 -10 -7 0 -6 4 3 10
19 12 23 12 15 0z m-782 -75 c-3 -9 -8 -14 -10 -11 -3 3 -2 9 2 15 9 16 15 13
8 -4z m917 -15 c-12 -16 -24 -30 -26 -30 -3 0 4 14 16 30 12 17 24 30 26 30 3
0 -4 -13 -16 -30z m8051 -221 c9 -18 7 -19 -18 -13 -35 9 -37 10 -30 28 8 19
34 11 48 -15z m-2554 -101 c-3 -8 -6 -5 -6 6 -1 11 2 17 5 13 3 -3 4 -12 1
-19z m951 -99 c-32 -61 -58 -86 -58 -57 0 8 11 25 24 37 13 12 32 37 42 56 10
19 20 32 22 30 2 -2 -11 -32 -30 -66z m-858 -53 c0 -3 -4 -8 -10 -11 -5 -3
-10 -1 -10 4 0 6 5 11 10 11 6 0 10 -2 10 -4z m-5772 -41 c-6 -14 -13 -23 -15
-21 -5 5 15 46 22 46 3 0 -1 -11 -7 -25z m2562 -124 c0 -5 -7 -14 -15 -21 -8
-7 -15 -22 -15 -34 -1 -20 -1 -20 -12 -2 -8 15 -7 22 6 31 9 7 16 17 16 24 0
6 5 11 10 11 6 0 10 -4 10 -9z m-2864 -153 c-18 -40 -47 -102 -64 -138 -66
-143 -121 -271 -167 -393 -26 -70 -50 -126 -52 -124 -6 6 93 337 131 438 20
53 36 107 36 119 0 15 26 48 73 96 39 40 73 73 74 73 1 1 -13 -32 -31 -71z
m2845 5 c-14 -24 -55 -72 -45 -53 10 20 47 70 51 70 2 0 -1 -8 -6 -17z m-2724
-65 c-3 -8 -6 -5 -6 6 -1 11 2 17 5 13 3 -3 4 -12 1 -19z m2610 -40 c-3 -7 -5
-2 -5 12 0 14 2 19 5 13 2 -7 2 -19 0 -25z m-21 -33 c2 -27 -10 -34 -19 -11
-4 10 9 36 18 36 0 0 1 -11 1 -25z m-2686 -141 c-23 -49 -55 -122 -72 -162
-17 -40 -32 -71 -35 -69 -7 7 66 195 105 271 50 97 51 68 2 -40z m-330 -469
c-16 -47 -23 -40 -8 8 6 20 13 35 16 33 2 -3 -1 -21 -8 -41z m-79 -230 c-32
-99 -67 -222 -77 -272 -10 -51 -22 -93 -26 -93 -27 0 15 186 81 360 94 249
101 251 22 5z m900 -17 c1 -26 -2 -62 -6 -66 -1 -1 -14 3 -28 9 -22 10 -30 8
-56 -12 -16 -13 -30 -31 -30 -38 -1 -11 -4 -12 -12 -4 -14 14 -4 61 20 91 15
21 56 38 99 41 6 1 13 -9 13 -21z m8978 -44 c29 -37 26 -49 -13 -49 -47 0 -63
17 -48 50 15 32 35 32 61 -1z m-571 -86 c-13 -35 -22 -87 -26 -150 l-5 -97
-61 -8 c-74 -10 -76 -7 -46 83 27 81 62 144 105 189 46 49 56 44 33 -17z m70
-305 c55 -31 147 -143 167 -202 57 -174 78 -496 41 -641 -24 -92 -76 -225
-112 -281 -28 -46 -104 -123 -138 -141 -18 -10 -19 -9 -9 3 7 9 15 35 18 59 3
24 10 47 15 50 16 10 0 69 -21 75 -11 4 -19 15 -19 26 0 10 -4 19 -10 19 -5 0
-10 -4 -10 -10 0 -5 -4 -10 -10 -10 -18 0 -11 49 20 144 48 148 60 230 60 420
0 197 -12 255 -60 301 -30 28 -31 29 -81 16 -68 -18 -82 -5 -83 80 -1 62 -1
63 39 90 64 45 118 45 193 2z m1105 -438 c9 -39 26 -129 37 -200 12 -72 37
-183 56 -247 l34 -117 -24 -53 c-28 -63 -39 -95 -72 -208 -62 -209 -132 -409
-234 -665 -47 -119 -164 -334 -176 -323 -2 3 7 32 21 66 32 79 179 530 244
747 80 270 101 355 107 435 8 98 -24 350 -71 558 -20 86 -41 183 -46 214 l-11
58 53 67 54 67 6 -164 c3 -91 13 -197 22 -235z m-10647 330 c-7 -29 5 -32 29
-8 16 16 17 14 11 -23 -9 -60 -10 -94 -2 -151 5 -34 4 -53 -2 -53 -6 0 -12 6
-15 13 -3 9 -7 9 -17 0 -7 -6 -19 -9 -27 -6 -9 4 -16 -2 -20 -16 -3 -11 -9
-18 -14 -15 -5 3 -9 1 -9 -5 0 -5 5 -13 10 -16 8 -5 8 -11 1 -19 -6 -7 -12
-31 -13 -54 -2 -23 -6 -42 -11 -42 -4 0 -5 26 -2 58 4 38 2 50 -4 37 -8 -18
-10 -18 -16 -3 -8 20 6 47 57 111 40 51 42 61 28 142 -5 32 -4 55 2 63 16 19
21 14 14 -13z m8141 -97 c-3 -8 -6 -5 -6 6 -1 11 2 17 5 13 3 -3 4 -12 1 -19z
m-8280 -61 c-13 -18 -41 -57 -62 -87 -75 -107 -113 -155 -156 -195 l-43 -40
41 47 c59 66 160 204 195 266 17 28 34 49 39 46 6 -3 -1 -20 -14 -37z m1650
37 c22 -6 21 -9 -23 -54 -61 -64 -67 -74 -99 -160 -20 -55 -29 -101 -32 -170
-7 -123 12 -197 77 -311 28 -48 50 -97 50 -110 0 -19 -2 -21 -10 -9 -8 12 -10
11 -10 -7 0 -13 -4 -23 -10 -23 -5 0 -10 -6 -10 -14 0 -13 -27 -26 -60 -30 -8
0 -14 -9 -14 -18 1 -10 -4 -14 -12 -11 -8 3 -14 10 -14 15 0 6 -7 5 -16 -3
-13 -10 -17 -10 -24 1 -5 8 -12 12 -15 8 -11 -11 33 -85 67 -112 18 -14 29
-29 24 -33 -8 -8 -78 61 -107 107 -25 37 -31 21 -10 -26 26 -58 70 -103 169
-178 89 -66 164 -146 209 -224 45 -76 123 -324 83 -262 -7 10 -10 11 -10 2 0
-9 -4 -10 -19 -1 -13 9 -26 9 -50 1 -17 -6 -39 -8 -47 -5 -13 5 -15 2 -9 -17
5 -15 4 -20 -4 -16 -6 4 -11 13 -11 20 0 8 -6 19 -14 25 -8 7 -18 26 -21 42
-4 16 -11 29 -16 29 -5 0 -10 10 -10 23 -1 15 -3 17 -6 5 -2 -9 9 -56 25 -105
44 -131 64 -204 58 -211 -3 -3 -6 2 -6 11 0 9 -6 17 -14 17 -8 0 -42 51 -77
118 -34 64 -80 147 -101 184 -22 37 -37 72 -34 77 6 9 -40 111 -50 111 -6 0 8
-32 29 -68 11 -18 17 -35 14 -38 -9 -9 -72 123 -100 211 -31 96 -44 173 -52
319 -3 66 -13 130 -25 165 -43 125 -64 271 -40 271 6 0 10 17 10 38 0 56 31
205 46 223 8 8 14 22 14 30 0 8 -11 1 -26 -16 -27 -32 -23 -18 8 27 10 15 24
25 31 22 7 -2 24 7 39 21 15 14 32 25 37 25 6 0 14 6 18 14 12 22 121 76 152
76 14 0 36 -3 48 -6z m-1570 -20 c-3 -3 -12 -4 -19 -1 -8 3 -5 6 6 6 11 1 17
-2 13 -5z m8193 -30 c0 -8 -5 -12 -10 -9 -6 4 -8 11 -5 16 9 14 15 11 15 -7z
m-7890 -33 c0 -10 -11 -49 -25 -85 -52 -139 -68 -237 -62 -396 10 -261 57
-445 312 -1218 79 -239 91 -293 68 -292 -8 1 -17 16 -81 145 -71 142 -183 473
-298 880 -37 128 -94 409 -94 458 0 16 11 60 24 97 14 38 32 105 40 150 22
116 44 189 72 238 26 45 44 54 44 23z m9061 -57 c5 -15 8 -29 5 -31 -2 -2 -8
10 -14 26 -13 38 -5 41 9 5z m1745 -240 c110 -115 216 -235 237 -266 l39 -56
-23 -43 c-99 -195 -324 -457 -368 -429 -8 4 -10 13 -6 21 6 9 10 8 16 -7 5
-13 8 -14 8 -4 1 8 17 25 36 38 39 24 47 62 21 97 -11 16 -12 24 -1 50 56 130
85 224 85 273 0 26 -9 45 -38 76 -53 57 -114 173 -151 285 -17 52 -31 98 -31
103 0 5 -11 26 -25 48 -27 43 -33 63 -11 40 7 -8 103 -110 212 -226z m-11209
159 c-6 -16 -19 -33 -27 -40 -8 -7 -10 -13 -5 -13 9 0 -50 -40 -60 -40 -3 0
-5 6 -5 14 0 12 92 106 104 106 3 0 0 -12 -7 -27z m11329 -108 c210 -235 284
-324 284 -339 0 -6 -13 3 -30 19 -23 22 -30 25 -30 12 0 -9 -4 -17 -10 -17 -5
0 -10 14 -10 30 0 17 -11 49 -25 71 -35 54 -161 186 -171 177 -4 -4 24 -42 61
-83 37 -42 65 -78 63 -81 -3 -3 -18 10 -33 28 -15 18 -46 53 -69 78 -27 29
-43 56 -44 74 -1 16 -5 32 -8 35 -4 3 -4 -6 -2 -21 6 -30 -6 -37 -19 -14 -4 8
-24 32 -43 53 -47 50 -61 76 -23 41 16 -16 34 -28 40 -28 6 0 14 -7 17 -16 4
-9 9 -14 12 -11 4 3 -7 23 -23 44 -32 41 -53 75 -36 58 5 -5 50 -55 99 -110z
m-1802 -6 c-15 -16 -33 -29 -39 -29 -25 0 -84 -63 -101 -108 -10 -26 -21 -49
-24 -52 -13 -10 -18 -65 -8 -83 5 -11 7 -35 3 -56 -6 -31 -9 -33 -15 -16 -5
11 -9 15 -9 9 -2 -27 -61 -23 -61 3 0 11 7 14 24 9 28 -7 44 9 19 18 -12 5
-13 10 -5 18 8 8 15 8 27 -2 16 -13 18 -10 9 14 -7 19 -30 11 -69 -26 -25 -23
-32 -26 -41 -14 -9 13 -12 12 -23 -2 -9 -13 -22 -17 -47 -14 -43 5 -43 15 0
30 53 19 124 89 156 152 28 56 28 58 11 74 -17 15 -19 15 -25 1 -4 -10 -2 -14
5 -9 8 4 8 0 0 -14 -15 -28 -32 -38 -25 -15 5 17 5 17 -9 1 -19 -24 -24 -23
-29 6 -3 15 0 27 8 30 8 3 14 12 14 19 0 21 23 37 59 41 18 2 39 12 47 22 14
18 15 16 10 -16 -3 -19 -3 -30 0 -23 3 8 15 9 35 3 28 -8 30 -7 36 21 5 27 7
28 19 12 8 -11 13 -13 14 -5 0 6 9 12 20 12 24 0 26 17 4 50 -13 21 -11 20 11
-4 l26 -29 -27 -28z m-9543 -6 c-10 -17 -10 -17 -11 2 0 11 4 31 8 45 l7 25 3
-27 c2 -15 -1 -35 -7 -45z m-87 19 c3 -5 -1 -9 -9 -9 -8 0 -12 4 -9 9 3 4 7 8
9 8 2 0 6 -4 9 -8z m63 -14 c-3 -8 -6 -5 -6 6 -1 11 2 17 5 13 3 -3 4 -12 1
-19z m5540 -85 c-3 -29 -2 -51 1 -49 4 2 8 -8 8 -22 2 -66 4 -71 19 -66 8 4
15 2 15 -3 0 -5 14 -9 32 -9 29 1 33 -3 52 -54 27 -73 28 -235 3 -335 -9 -38
-24 -126 -32 -195 -12 -95 -28 -161 -66 -275 -28 -82 -62 -170 -75 -195 -39
-69 -137 -194 -156 -198 -44 -8 -219 204 -284 346 -33 70 -75 201 -89 274 -6
32 -4 38 27 59 129 90 234 216 369 442 80 132 124 222 144 290 21 72 40 66 32
-10z m-5527 53 c0 -3 -4 -8 -10 -11 -5 -3 -10 -1 -10 4 0 6 5 11 10 11 6 0 10
-2 10 -4z m-300 -89 c0 -2 -12 -14 -27 -28 l-28 -24 24 28 c23 25 31 32 31 24z
m40 -66 c-5 -11 -15 -23 -21 -27 -6 -3 -3 5 6 20 20 30 30 35 15 7z m-121 -36
c-33 -46 -53 -63 -27 -22 8 12 21 32 29 45 8 12 18 22 22 22 5 0 -6 -20 -24
-45z m11481 -34 c0 -7 11 -22 25 -33 39 -31 66 -89 56 -124 -5 -18 -14 -28
-23 -26 -9 1 -25 -17 -41 -45 -14 -27 -38 -61 -52 -78 -15 -18 -8 -2 17 40 55
91 55 123 0 237 -23 47 -42 91 -42 99 0 17 59 -52 60 -70z m-3310 55 c0 -3 -4
-8 -10 -11 -5 -3 -10 -1 -10 4 0 6 5 11 10 11 6 0 10 -2 10 -4z m-7987 -61
c-3 -9 -8 -14 -10 -11 -3 3 -2 9 2 15 9 16 15 13 8 -4z m-133 -118 c0 -32 31
-108 56 -139 14 -17 20 -35 17 -48 -4 -16 -2 -19 13 -13 13 5 16 3 11 -9 -7
-19 19 -33 27 -15 2 7 5 8 5 2 0 -5 -6 -19 -15 -30 -15 -20 -15 -20 -35 5
-139 177 -162 221 -139 267 26 52 32 55 46 27 8 -14 14 -36 14 -47z m3237 21
c-3 -7 -5 -2 -5 12 0 14 2 19 5 13 2 -7 2 -19 0 -25z m-2892 6 c6 -3 26 -40
42 -82 17 -42 52 -126 78 -187 51 -119 89 -234 81 -242 -2 -3 -9 11 -14 31
-11 38 -42 78 -42 54 0 -7 -10 2 -21 20 -20 30 -22 31 -34 15 -11 -15 -15 -15
-29 -4 -9 8 -16 9 -16 3 0 -6 6 -12 13 -15 8 -3 6 -7 -7 -12 -10 -5 -21 -3
-25 3 -3 6 -13 12 -21 14 -8 2 -49 53 -90 113 -42 61 -90 130 -108 154 -17 24
-32 50 -32 57 0 15 55 63 95 81 27 12 94 10 130 -3z m9325 -44 c0 -5 -4 -10
-10 -10 -5 0 -10 5 -10 10 0 6 5 10 10 10 6 0 10 -4 10 -10z m-10 -36 c0 -8
-5 -14 -11 -14 -7 0 -9 -10 -7 -25 4 -17 1 -25 -8 -25 -8 0 -14 -7 -14 -15 0
-25 -17 -17 -24 10 -9 36 3 53 21 30 15 -22 17 -12 3 15 -9 16 -8 18 6 13 14
-5 16 -2 10 22 -6 25 -5 27 8 16 9 -8 16 -20 16 -27z m2239 -12 c-6 -18 -14
-32 -18 -32 -9 0 -44 -60 -38 -66 2 -3 24 25 48 61 40 58 60 78 59 58 -1 -10
-62 -92 -164 -219 -191 -239 -299 -361 -370 -417 -38 -30 -39 -31 -22 -5 17
26 17 26 -8 24 -14 -2 -26 -2 -26 -1 0 2 35 32 77 67 154 127 261 240 338 355
15 24 32 40 38 36 5 -3 7 0 5 8 -3 8 7 37 22 65 55 102 82 132 59 66z m-408
-43 c-5 -13 -10 -19 -10 -12 -1 15 10 45 15 40 3 -2 0 -15 -5 -28z m-1864
-116 c-3 -10 -5 -4 -5 12 0 17 2 24 5 18 2 -7 2 -21 0 -30z m-560 -150 c-3
-10 -5 -4 -5 12 0 17 2 24 5 18 2 -7 2 -21 0 -30z m1029 -79 c-14 -27 -26 -42
-26 -34 0 13 -1 13 -10 0 -13 -20 -12 -33 1 -24 7 4 -1 -16 -17 -45 -16 -28
-32 -51 -36 -51 -10 0 3 38 18 51 8 6 14 18 14 26 0 12 -2 12 -13 1 -7 -7 -16
-21 -20 -31 -9 -24 -27 -12 -27 18 0 13 -4 27 -10 30 -5 3 -10 -2 -10 -12 0
-13 -3 -14 -8 -5 -5 7 -22 14 -39 15 -20 1 -29 6 -26 15 3 6 10 12 15 12 6 0
8 11 6 25 -7 33 25 64 47 45 11 -9 15 -9 15 -1 0 8 8 10 20 6 15 -5 18 -3 14
9 -4 11 0 16 12 17 11 0 37 10 59 22 l40 22 3 -31 c2 -18 -7 -50 -22 -80z
m1424 86 c0 -11 -4 -20 -9 -20 -5 0 -7 9 -4 20 3 11 7 20 9 20 2 0 4 -9 4 -20z
m-6330 -90 c0 -5 -5 -10 -11 -10 -5 0 -7 5 -4 10 3 6 8 10 11 10 2 0 4 -4 4
-10z m4710 -10 c0 -5 -4 -10 -10 -10 -5 0 -10 5 -10 10 0 6 5 10 10 10 6 0 10
-4 10 -10z m1550 -3 c0 -2 -10 -12 -21 -23 -22 -19 -22 -19 -10 4 10 18 31 31
31 19z m-1470 -177 c5 0 7 -7 3 -16 -4 -12 -9 -8 -19 16 -8 18 -11 37 -6 44 4
6 8 0 10 -16 2 -16 7 -28 12 -28z m14 24 c3 -8 2 -12 -4 -9 -6 3 -10 10 -10
16 0 14 7 11 14 -7z m-4866 -16 c-2 -13 -7 -23 -13 -23 -5 0 -11 10 -13 23 -2
15 2 22 13 22 11 0 15 -7 13 -22z m-275 -15 c-7 -2 -13 -9 -13 -14 0 -6 5 -7
12 -3 7 5 8 3 3 -5 -5 -9 -11 -9 -17 -3 -12 12 -2 32 15 31 9 0 9 -2 0 -6z
m-4265 -68 c-3 -3 -9 2 -12 12 -6 14 -5 15 5 6 7 -7 10 -15 7 -18z m9905 -236
c15 -21 27 -44 27 -51 0 -18 -31 -48 -50 -48 -22 0 -50 41 -50 72 0 24 25 68
38 68 4 -1 19 -19 35 -41z m-9053 6 c-6 -8 -9 -19 -5 -25 3 -5 2 -10 -3 -10
-12 0 -24 29 -16 41 3 5 12 9 21 9 12 0 13 -3 3 -15z m30 -9 c0 -3 -4 -8 -10
-11 -5 -3 -10 -1 -10 4 0 6 5 11 10 11 6 0 10 -2 10 -4z m3421 -136 c72 -93
89 -120 77 -115 -7 3 -35 38 -63 77 -79 114 -85 130 -14 38z m1228 -44 c1 -32
-12 -9 -15 26 -2 26 -1 29 6 13 5 -11 9 -29 9 -39z m8 -48 c-3 -8 -6 -5 -6 6
-1 11 2 17 5 13 3 -3 4 -12 1 -19z m-2782 -48 c9 -16 13 -30 11 -30 -3 0 -12
14 -21 30 -9 17 -13 30 -11 30 3 0 12 -13 21 -30z m2798 -23 c4 -28 3 -46 -2
-42 -5 3 -12 -3 -14 -12 -3 -10 -2 3 0 30 5 43 4 47 -12 40 -17 -6 -17 -5 1
14 10 11 19 19 20 19 1 -1 4 -23 7 -49z m-2986 -2 c-15 -16 -19 -13 -11 9 3 9
10 13 15 10 5 -3 3 -11 -4 -19z m2983 -114 c0 -6 4 -11 10 -11 5 0 7 7 4 15
-4 8 -1 15 5 15 6 0 11 -3 11 -7 0 -5 3 -19 6 -33 5 -21 4 -22 -6 -10 -10 13
-11 12 -6 -3 3 -10 6 -28 7 -40 0 -21 1 -21 9 -2 5 11 9 17 9 12 1 -4 15 -62
31 -130 81 -330 134 -441 272 -573 84 -81 125 -111 239 -177 104 -59 186 -98
332 -153 320 -123 395 -269 265 -514 -44 -83 -99 -152 -248 -314 -104 -113
-261 -305 -511 -626 -80 -102 -193 -247 -253 -324 -101 -130 -269 -368 -375
-533 -43 -69 -61 -87 -61 -62 0 17 -205 319 -341 504 -69 94 -188 258 -264
365 -76 107 -169 236 -206 286 -38 51 -106 147 -153 215 -46 68 -119 164 -161
214 -42 49 -83 102 -91 117 -8 16 -19 26 -24 23 -33 -20 -151 183 -175 300
-16 79 -10 124 24 179 48 77 121 122 286 176 115 38 334 139 354 163 7 9 20
17 29 17 8 0 20 7 27 16 10 15 12 15 18 1 4 -11 -15 -27 -67 -59 -68 -43 -246
-128 -265 -128 -25 0 -230 -115 -258 -145 -70 -73 -66 -163 13 -322 61 -124
118 -201 276 -378 191 -213 342 -396 476 -575 63 -85 164 -219 222 -298 67
-89 130 -188 170 -265 34 -67 70 -130 79 -141 20 -23 56 -37 76 -30 33 13 173
218 265 389 109 203 456 658 711 933 117 125 201 238 250 337 45 90 50 107 50
165 0 137 -42 181 -298 312 -245 124 -413 259 -566 453 -39 49 -90 111 -113
137 -52 60 -116 180 -108 205 4 12 3 14 -3 6 -6 -9 -18 12 -36 67 -30 90 -34
113 -12 84 8 -10 15 -14 15 -7 0 6 -5 15 -11 19 -6 3 -8 17 -4 31 3 15 2 22
-4 18 -6 -3 -6 7 1 27 14 43 33 63 24 26 -3 -14 -2 -37 3 -50 9 -21 10 -21 11
-3 0 17 2 18 10 5 9 -13 12 -13 24 3 12 15 12 23 1 45 -7 15 -16 38 -20 52 -7
22 -6 23 9 8 9 -9 16 -21 16 -27z m-2839 5 c15 9 10 -3 -8 -17 -11 -10 -14
-10 -9 -1 4 7 2 12 -4 12 -6 0 -8 5 -4 12 6 9 9 9 12 0 2 -7 8 -10 13 -6z m39
-58 c0 -6 -7 -5 -15 2 -8 7 -15 17 -15 22 0 6 7 5 15 -2 8 -7 15 -17 15 -22z
m175 -89 c15 -14 -7 -10 -35 7 l-25 15 25 -7 c14 -3 29 -10 35 -15z m7198
-201 c-126 -246 -340 -564 -532 -793 -502 -600 -1182 -1168 -1776 -1487 -307
-164 -782 -350 -1082 -424 -59 -14 -115 -30 -123 -34 -8 -4 -33 -10 -55 -13
l-40 -6 28 15 c15 8 32 12 37 9 6 -3 10 -1 10 4 0 6 13 11 29 11 39 0 48 26
13 38 -27 9 -26 10 13 17 22 4 94 22 160 40 637 177 1231 489 1790 939 364
293 822 767 1112 1151 77 102 288 407 446 643 23 35 43 59 45 53 2 -6 -32 -79
-75 -163z m-5105 -145 c-108 -164 -185 -251 -319 -359 -71 -58 -79 -62 -79
-40 0 18 39 48 52 40 5 -3 7 0 6 8 -2 7 4 12 13 10 9 -1 35 18 58 44 22 25 41
43 41 40 0 -10 40 28 40 39 0 5 21 30 45 54 25 25 45 50 45 55 0 6 16 29 36
51 19 22 58 75 86 117 29 42 54 75 56 73 2 -2 -34 -61 -80 -132z m450 -217
c90 -139 216 -254 548 -499 191 -142 280 -224 289 -269 8 -33 -2 -85 -21 -115
-12 -19 -18 -20 -45 -13 -46 13 -97 51 -103 76 -3 12 -25 38 -48 57 -81 68
-313 292 -396 382 -84 92 -192 239 -192 262 0 7 -4 13 -10 13 -13 0 -60 71
-54 81 3 5 -2 28 -10 51 -8 24 -17 52 -21 63 l-7 20 13 -20 c6 -11 32 -51 57
-89z m-5103 -81 c21 -38 72 -122 115 -185 43 -63 82 -125 88 -136 15 -29 29
-94 48 -222 14 -102 65 -325 120 -532 33 -123 162 -459 220 -575 229 -451 287
-523 631 -795 130 -102 169 -138 161 -147 -7 -9 -7 -13 0 -13 6 0 12 6 15 13
2 8 19 0 48 -23 24 -20 57 -44 72 -53 15 -10 25 -22 22 -27 -3 -6 1 -7 10 -4
11 5 18 0 22 -15 3 -11 10 -21 15 -21 5 0 6 5 3 10 -10 16 1 11 16 -7 10 -11
10 -14 2 -9 -7 4 -13 5 -13 2 0 -3 10 -10 21 -17 16 -8 20 -8 14 1 -6 9 -2 9
14 1 27 -15 28 -35 1 -28 -11 3 -18 1 -14 -4 10 -16 -7 -10 -40 16 -18 14 -38
25 -44 25 -7 0 -12 5 -12 11 0 5 6 7 13 3 9 -5 9 -3 -1 7 -11 12 -14 12 -21 0
-5 -8 -14 -10 -21 -6 -9 6 -9 9 1 16 11 7 10 9 -3 9 -9 0 -20 -5 -23 -10 -4
-7 -14 -3 -26 11 -23 27 -49 19 -49 -16 0 -25 -10 -32 -24 -17 -4 4 -17 7 -29
7 -11 0 -22 6 -24 13 -3 8 6 12 25 12 17 0 32 -5 34 -10 2 -6 8 2 14 19 14 36
3 61 -20 42 -8 -7 -21 -9 -27 -5 -7 4 -9 3 -6 -3 4 -6 0 -16 -7 -22 -11 -9
-16 -9 -22 0 -4 8 -3 9 4 5 8 -5 12 3 12 23 0 17 0 34 1 38 0 4 -4 9 -9 11 -6
2 -8 -6 -5 -19 4 -15 0 -26 -13 -36 -16 -11 -17 -17 -6 -33 11 -19 11 -19 -7
-8 -11 7 -18 15 -16 18 2 3 0 12 -6 20 -6 10 -9 11 -9 3 0 -7 -5 -13 -11 -13
-7 0 -9 10 -6 25 3 17 0 24 -7 22 -6 -3 -10 -10 -8 -16 1 -7 -2 -10 -8 -6 -5
3 -10 12 -10 20 0 12 -27 30 -42 27 -5 -1 -8 5 -8 14 0 8 -5 12 -10 9 -13 -8
-42 14 -35 25 3 5 1 11 -5 15 -5 3 -10 1 -10 -5 0 -6 -5 -8 -11 -5 -6 4 -8 13
-5 21 3 8 0 11 -10 7 -10 -4 -12 0 -7 13 5 12 3 15 -7 9 -16 -10 -242 220
-327 332 -87 115 -114 158 -232 367 -60 105 -138 237 -174 292 -200 311 -305
569 -352 869 -16 97 -35 727 -22 715 3 -3 22 -36 42 -75z m583 -40 c400 -549
598 -771 982 -1096 547 -463 1199 -808 1930 -1019 103 -30 396 -100 417 -100
2 0 3 -5 3 -11 0 -16 -161 -4 -298 22 -236 45 -469 116 -767 234 -401 159
-710 334 -1080 614 -300 226 -720 633 -949 920 -87 109 -286 412 -286 435 0 3
8 2 18 -1 14 -6 15 -4 5 8 -6 8 -17 28 -22 44 -10 28 -10 28 3 10 8 -11 28
-38 44 -60z m5567 45 c3 -5 11 -10 16 -10 6 0 7 5 4 10 -8 13 6 13 155 -5 69
-8 177 -15 240 -16 138 -3 155 -6 139 -25 -9 -11 -15 -12 -26 -3 -10 9 -20 9
-36 1 -12 -6 -29 -13 -37 -15 -9 -4 -6 -6 8 -6 12 -1 22 -5 22 -11 0 -5 10
-10 23 -11 15 -1 12 -3 -12 -9 -78 -18 -600 15 -625 40 -8 8 31 30 52 30 4 0
13 9 20 20 13 21 47 27 57 10z m686 -53 c-4 -61 -11 -59 -11 3 0 29 3 50 7 46
4 -4 6 -26 4 -49z m1117 16 c-9 -2 -20 -13 -23 -24 -4 -10 -11 -19 -17 -19 -6
0 -37 -16 -69 -36 -32 -19 -63 -32 -69 -29 -6 4 -9 3 -8 -2 2 -4 -23 -33 -54
-63 -74 -70 -128 -161 -128 -212 0 -31 4 -38 19 -38 11 0 22 -4 26 -9 3 -5 30
-15 60 -21 53 -11 58 -10 103 16 44 25 46 26 27 4 -11 -12 -45 -41 -75 -63
-30 -23 -102 -86 -160 -141 -118 -113 -404 -311 -591 -410 -155 -82 -452 -195
-601 -230 -47 -11 -31 1 25 18 118 38 221 82 387 166 203 101 242 124 411 243
163 113 218 167 173 167 -19 0 -303 -145 -376 -193 -172 -111 -334 -181 -637
-274 -9 -2 109 58 262 135 153 78 284 145 290 150 7 5 91 49 187 98 240 122
331 197 365 302 22 65 15 110 -22 159 -15 20 -21 33 -13 28 23 -14 42 -15 37
-1 -3 8 9 18 29 25 19 7 40 18 47 24 31 30 78 57 87 52 5 -3 19 13 31 36 17
34 18 43 7 51 -8 5 -2 6 16 2 25 -6 28 -5 23 11 -5 13 -3 16 8 11 8 -3 15 -2
15 2 0 14 171 71 210 70 11 0 10 -2 -2 -5z m-5852 -80 c-5 -5 -76 24 -76 31 0
2 18 -3 40 -11 22 -9 38 -18 36 -20z m6087 -34 c-5 -5 -6 11 -3 34 4 41 5 41
8 8 2 -18 0 -37 -5 -42z m-6393 26 c-8 -10 -9 -15 -2 -15 16 0 52 -41 46 -52
-3 -4 0 -8 5 -8 6 0 11 5 11 10 0 6 12 -1 26 -15 25 -25 52 -29 47 -6 -4 16
14 13 21 -4 4 -11 14 -13 38 -9 26 4 30 3 18 -5 -11 -9 -5 -10 26 -5 45 7 114
-16 114 -39 0 -20 -39 -53 -83 -72 -44 -18 -83 -11 -150 28 -50 30 -73 55
-114 123 -39 65 -50 96 -30 88 8 -3 19 0 23 7 6 10 9 10 12 1 2 -7 -2 -19 -8
-27z m4995 25 c-3 -5 -14 -10 -23 -9 -14 0 -13 2 3 9 27 11 27 11 20 0z
m-4495 -128 c19 -14 47 -39 61 -55 15 -17 31 -27 36 -24 6 4 16 0 23 -8 7 -8
16 -13 20 -10 5 3 11 1 15 -5 3 -5 -3 -10 -14 -10 -33 0 -26 -39 20 -111 108
-167 386 -366 810 -580 133 -67 394 -175 484 -200 92 -26 99 -29 94 -33 -7 -7
-231 44 -304 69 -281 96 -679 305 -890 468 -92 71 -272 275 -316 359 -22 43
-65 105 -95 138 l-56 60 39 -16 c21 -9 54 -28 73 -42z m2664 -14 c10 -29 71
-153 137 -275 156 -290 161 -305 153 -399 -4 -41 -10 -77 -15 -80 -4 -2 -5
-12 -2 -21 4 -11 3 -14 -5 -9 -8 5 -12 -2 -12 -21 0 -22 -2 -25 -10 -13 -13
20 -13 63 0 55 6 -3 10 3 10 14 0 11 -5 23 -10 26 -6 4 -8 10 -6 14 3 4 -8 8
-23 9 -22 0 -31 -5 -35 -21 -7 -26 -98 -148 -178 -237 -45 -51 -59 -61 -70
-52 -8 6 -29 12 -46 14 -23 2 -32 7 -32 20 0 10 -4 18 -10 18 -5 0 -10 -6 -10
-12 0 -27 -20 18 -20 45 0 15 -9 53 -20 84 -11 31 -23 79 -26 106 -11 81 -29
28 -28 -83 0 -110 18 -185 74 -307 66 -142 125 -212 169 -198 29 9 135 138
190 230 67 113 111 236 136 380 7 38 8 39 17 15 15 -37 2 -154 -25 -240 -23
-72 -102 -240 -112 -240 -3 0 5 21 19 48 50 100 78 163 73 168 -2 3 -12 -12
-22 -33 -52 -108 -176 -299 -188 -287 -3 3 -10 -9 -16 -28 -5 -18 -19 -58 -31
-88 l-21 -55 38 44 c72 85 77 90 55 52 -24 -41 -114 -150 -124 -150 -17 -2
-79 63 -74 76 3 8 2 11 -3 8 -5 -3 -12 -1 -15 4 -10 16 12 23 34 11 11 -6 20
-8 20 -4 0 10 -68 132 -101 180 -39 58 -105 189 -129 259 -12 33 -24 94 -27
135 -4 66 1 96 40 250 60 231 97 333 166 460 32 58 64 122 71 143 8 20 17 37
20 37 3 0 14 -24 24 -52z m3146 -3 c-7 -9 -15 -13 -19 -10 -3 3 1 10 9 15 21
14 24 12 10 -5z m-5389 -57 c27 -102 101 -244 176 -335 l32 -39 -30 4 c-16 2
-34 13 -40 23 -5 11 -14 19 -20 19 -6 0 -7 -5 -4 -10 8 -13 -65 16 -122 48
-51 28 -67 51 -118 159 -38 83 -49 93 -104 93 -51 0 -10 12 53 15 36 2 70 6
75 10 5 3 12 1 16 -4 3 -7 15 -7 29 -1 13 5 27 6 30 3 6 -7 9 11 7 40 -4 32 8
17 20 -25z m1704 2 c-18 -35 -130 -148 -240 -240 -128 -108 -139 -122 -130
-167 4 -20 32 -96 62 -168 30 -71 70 -171 89 -222 68 -188 181 -380 354 -603
99 -128 245 -344 260 -385 l10 -30 -18 23 c-17 22 -18 22 -18 2 0 -11 4 -20 8
-20 4 0 8 -11 8 -25 0 -14 -5 -25 -11 -25 -6 0 -9 -7 -5 -15 3 -8 1 -15 -3
-15 -10 0 -88 130 -135 225 -17 33 -94 155 -171 271 -78 116 -155 235 -172
265 -16 30 -80 133 -140 229 -61 96 -129 211 -151 255 -44 86 -102 276 -102
333 0 49 39 82 211 176 79 44 178 99 219 123 41 24 78 43 83 43 4 0 1 -13 -8
-30z m799 -106 c21 -31 35 -58 32 -62 -3 -3 -6 0 -6 6 0 7 -7 12 -16 12 -8 0
-13 4 -10 9 3 4 -6 23 -19 41 -23 31 -31 50 -21 50 2 0 20 -25 40 -56z m4698
-107 c-47 -419 -207 -825 -495 -1257 -57 -86 -173 -238 -197 -260 -3 -3 -34
-40 -70 -83 -38 -46 -70 -75 -78 -72 -7 2 -10 0 -7 -5 11 -17 -5 -32 -20 -20
-16 13 -3 53 24 80 9 9 17 22 19 30 4 17 38 51 44 45 2 -2 10 16 17 41 7 24
22 49 32 55 12 6 19 21 19 39 0 17 8 37 19 46 11 10 16 24 14 35 -3 11 1 26 8
35 7 9 14 33 15 53 1 20 21 80 44 135 23 54 39 107 37 117 -3 11 -1 19 5 19 5
0 7 4 3 9 -3 5 4 33 16 63 58 146 139 421 139 475 0 12 7 37 15 55 18 40 75
288 75 327 0 15 9 36 20 46 13 12 20 14 20 5 0 -10 3 -10 15 0 13 11 14 10 9
-3 -3 -10 2 -20 15 -26 16 -9 22 -8 30 6 9 16 10 15 11 -7 0 -20 2 -22 10 -10
7 11 10 7 10 -19 0 -29 -2 -32 -15 -21 -25 21 -28 4 -3 -19 22 -21 22 -21 30
-1 4 11 10 20 13 20 4 0 3 -4 0 -10 -3 -5 -2 -10 3 -10 11 0 42 61 42 82 0 7
9 20 20 28 11 8 20 19 20 25 0 6 14 26 32 44 47 48 54 31 40 -92z m-2602 53
c-15 -52 -49 -97 -126 -168 -81 -75 -224 -162 -264 -162 l-25 1 30 24 c17 14
34 23 40 22 5 -2 35 21 66 51 31 29 69 61 85 71 22 14 84 85 121 140 1 2 9 -2
17 -9 13 -10 19 -6 37 24 26 44 30 45 19 6z m-2032 -45 c-3 -3 -9 2 -12 12 -6
14 -5 15 5 6 7 -7 10 -15 7 -18z m-3048 -1 c0 -14 30 -28 39 -18 3 4 0 9 -6
11 -7 3 -13 9 -13 14 0 20 22 7 62 -36 23 -25 48 -45 56 -45 15 0 52 -37 52
-52 0 -5 4 -6 10 -3 5 3 56 -40 112 -97 110 -111 219 -194 363 -278 111 -64
404 -208 505 -249 121 -48 152 -62 148 -66 -4 -4 -86 28 -258 100 -69 29 -316
151 -440 218 -106 57 -178 107 -294 206 -118 101 -181 145 -220 155 -29 7 -73
47 -119 107 -31 41 -32 46 -12 46 8 0 15 -6 15 -13z m7505 -4 c3 -5 1 -10 -4
-10 -6 0 -11 5 -11 10 0 6 2 10 4 10 3 0 8 -4 11 -10z m-9327 -175 c141 -216
613 -685 977 -971 460 -362 1031 -671 1570 -850 340 -113 734 -211 920 -230
63 -6 78 -11 70 -24 -4 -6 4 -5 19 2 15 6 29 8 33 4 5 -4 9 -60 10 -124 1 -76
-1 -108 -6 -92 l-9 25 -1 -27 c-1 -15 -5 -29 -9 -32 -5 -3 -7 23 -5 57 2 58 2
60 -8 23 -11 -46 -23 -63 -17 -26 2 21 -1 26 -26 28 -16 2 -26 -1 -22 -6 3 -5
-1 -15 -9 -22 -23 -19 -18 -27 16 -28 36 -1 34 0 43 -30 9 -29 -22 -44 -36
-17 -8 14 -12 15 -19 4 -14 -22 -10 -39 6 -33 11 5 15 -1 15 -19 0 -26 -20
-40 -44 -31 -8 3 -12 12 -9 21 4 11 1 14 -13 11 -12 -2 -20 -13 -22 -31 -3
-27 -39 -46 -61 -32 -6 3 -11 2 -11 -4 0 -5 -8 -8 -18 -6 -24 4 -48 -10 -34
-19 6 -4 9 -12 6 -19 -11 -30 194 -56 299 -37 29 5 29 5 81 -140 28 -81 61
-162 73 -182 l21 -36 -26 8 c-15 5 -56 20 -92 33 -36 14 -146 43 -245 66 -611
142 -717 171 -1035 288 -644 236 -1141 512 -1531 849 -168 146 -338 338 -455
515 -93 140 -247 424 -290 534 -77 193 -142 454 -158 630 -7 69 -7 70 10 40 9
-16 28 -48 42 -70z m2592 -71 c0 -2 -9 0 -20 6 -11 6 -20 13 -20 16 0 2 9 0
20 -6 11 -6 20 -13 20 -16z m2497 4 c13 -12 23 -29 23 -39 0 -9 7 -22 15 -29
19 -15 20 1 4 33 -9 18 -6 16 20 -7 17 -17 31 -37 31 -45 0 -9 -10 -54 -22
-100 -17 -67 -23 -79 -28 -60 -4 13 -18 47 -32 74 -34 66 -58 148 -51 174 7
26 11 26 40 -1z m-957 -25 c0 -20 -20 -100 -44 -177 -24 -78 -55 -180 -70
-228 -14 -48 -31 -90 -36 -93 -22 -14 -5 -45 78 -144 111 -132 149 -187 212
-303 61 -112 146 -298 136 -298 -2 0 -17 24 -34 53 -33 59 -217 321 -314 449
-59 77 -178 296 -178 327 0 7 22 50 49 95 55 91 116 212 151 299 27 66 50 75
50 20z m4876 -87 c-43 -326 -309 -902 -565 -1218 -204 -253 -698 -616 -1137
-836 -367 -184 -949 -384 -1399 -482 -298 -64 -554 -144 -663 -207 -98 -56
-213 -134 -287 -192 -42 -34 -83 -61 -91 -61 -8 0 -14 -4 -14 -10 0 -5 -7 -10
-16 -10 -8 0 -36 -12 -62 -26 l-47 -26 35 32 c19 18 50 45 68 61 17 15 32 33
32 38 0 5 56 55 124 111 140 114 191 166 212 217 8 18 18 32 22 29 14 -8 70
88 87 150 23 79 28 84 70 71 24 -7 49 -7 87 2 29 6 64 14 78 16 106 19 202 43
190 48 -11 5 -12 8 -2 13 24 11 11 23 -20 18 -23 -3 -40 1 -56 16 -32 27 -22
54 25 66 43 11 57 34 20 34 -31 0 -57 27 -30 32 27 5 27 64 -1 74 -17 6 -15 8
17 11 44 5 50 23 7 23 -28 0 -30 2 -30 40 0 22 -4 40 -10 40 -5 0 -10 6 -10
14 0 8 8 13 18 12 9 0 16 4 15 11 -2 7 13 15 35 19 106 18 348 81 517 135 444
142 952 381 1355 638 442 281 1084 804 1333 1085 91 103 105 105 93 12z
m-2526 67 c0 -9 -202 -115 -207 -109 -4 3 186 113 200 115 4 0 7 -2 7 -6z
m-220 -118 c0 -3 -28 -19 -62 -36 -73 -36 -67 -23 6 15 51 27 56 29 56 21z
m-2418 -50 c-2 -14 -8 -25 -13 -25 -12 0 -11 7 1 31 14 26 18 24 12 -6z m-539
-420 c29 -13 45 -24 37 -24 -8 -1 -42 13 -75 29 -68 34 -40 30 38 -5z m1721
-11 c-9 -22 -16 -45 -15 -53 3 -16 -29 -104 -35 -98 -2 2 2 23 10 45 9 23 11
42 7 42 -4 0 -13 -15 -19 -32 -6 -20 -10 -25 -11 -14 -1 10 15 49 35 87 39 73
57 88 28 23z m69 -31 c-4 -10 -15 -31 -26 -48 -17 -27 -18 -28 -12 -5 7 26 32
70 40 70 2 0 1 -8 -2 -17z m7274 -110 c-3 -10 -5 -2 -5 17 0 19 2 27 5 18 2
-10 2 -26 0 -35z m-5672 7 c28 -29 28 -30 10 -50 -26 -29 -54 -34 -76 -14 -25
23 -24 59 3 78 29 21 30 21 63 -14z m-1754 -41 l-10 -24 0 26 c-1 14 2 29 6
33 12 12 14 -9 4 -35z m120 8 c-10 -9 -11 -8 -5 6 3 10 9 15 12 12 3 -3 0 -11
-7 -18z m-53 -37 c-7 -10 -14 -18 -15 -16 -6 6 9 36 18 36 5 0 4 -9 -3 -20z
m-107 -37 c-12 -20 -14 -14 -5 12 4 9 9 14 11 11 3 -2 0 -13 -6 -23z m4 -50
c-18 -38 -41 -77 -50 -88 -14 -18 -14 -16 1 20 9 22 17 48 18 58 0 10 6 15 13
13 7 -3 13 -1 13 5 0 10 30 59 36 59 1 0 -12 -30 -31 -67z m92 5 c-3 -8 -6 -5
-6 6 -1 11 2 17 5 13 3 -3 4 -12 1 -19z m-61 -56 c-8 -16 -12 -32 -9 -36 4 -3
2 -6 -3 -6 -5 0 -11 -11 -12 -24 -2 -35 -20 -76 -32 -76 -5 0 -10 -9 -10 -20
0 -32 -22 -70 -41 -70 -24 0 -32 16 -19 37 10 16 11 15 7 -4 -6 -27 8 -30 21
-6 6 11 6 23 0 33 -9 13 2 38 47 114 32 53 60 95 62 92 3 -2 -2 -17 -11 -34z
m-4680 -552 c315 -358 691 -635 1224 -901 207 -103 335 -159 523 -229 85 -32
114 -49 60 -35 -135 34 -618 255 -861 394 -488 281 -815 560 -1125 960 -82
105 -70 109 15 4 39 -48 113 -135 164 -193z m8378 49 c-8 -14 -21 -11 -21 5 0
8 6 12 14 9 7 -3 10 -9 7 -14z m-300 -140 c-3 -5 -10 -6 -16 -3 -6 4 -8 2 -5
-3 7 -11 -76 -103 -93 -103 -16 0 -11 -30 5 -36 13 -5 13 -9 3 -21 -10 -13
-13 -13 -19 4 -5 14 -8 12 -13 -14 -5 -21 -23 -45 -54 -69 -26 -21 -49 -41
-52 -44 -34 -36 -234 -174 -385 -265 -172 -104 -445 -236 -484 -234 -9 0 2 8
24 17 23 9 66 32 98 50 31 17 61 32 67 32 5 0 10 3 10 8 0 4 21 18 48 30 26
13 63 32 82 42 19 10 38 16 43 13 4 -2 7 1 7 6 0 6 9 11 20 11 11 0 20 5 20
11 0 5 5 7 10 4 6 -3 10 -1 10 6 0 7 3 10 6 6 8 -8 93 45 132 83 18 17 32 25
32 19 0 -5 5 -7 10 -4 6 4 10 12 9 18 -3 18 12 47 23 47 6 0 8 -7 4 -15 -3 -8
-1 -15 4 -15 5 0 12 9 15 20 3 11 11 20 16 20 5 0 9 7 9 15 0 8 7 15 15 15 8
0 15 6 15 14 0 8 9 18 20 21 11 3 20 11 20 16 0 5 5 9 11 9 6 0 20 11 31 25
11 14 24 23 29 20 5 -4 9 3 9 15 0 17 4 20 22 15 15 -6 20 -4 15 6 -22 56 -22
55 3 31 29 -27 37 -22 15 11 -15 24 -15 27 1 46 10 11 21 18 26 15 4 -3 8 0 8
7 0 8 5 7 17 -2 11 -10 14 -10 9 -1 -4 7 -1 12 8 12 9 0 16 6 16 13 0 22 36
47 49 34 9 -9 11 -5 9 13 -2 17 4 27 21 36 25 13 55 8 45 -7z m-7360 -384 c8
-8 21 -15 28 -16 10 0 10 -2 1 -6 -7 -2 -25 5 -39 16 -15 12 -22 21 -16 21 6
0 17 -7 26 -15z m135 -54 c-6 -2 -15 3 -20 10 -15 24 -10 29 11 11 12 -10 16
-18 9 -21z m7111 24 c-7 -8 -17 -15 -23 -15 -6 0 -2 7 9 15 25 19 30 19 14 0z
m-6906 -16 c20 -12 36 -25 36 -31 0 -5 4 -7 9 -4 4 3 28 -7 52 -22 40 -26 90
-53 309 -170 90 -47 349 -165 476 -216 83 -33 491 -176 503 -176 2 0 2 -2 -1
-5 -6 -7 -86 14 -220 56 -55 17 -106 28 -114 25 -10 -4 -12 -2 -8 6 5 8 -1 9
-20 4 -48 -12 -478 112 -473 136 1 6 -4 13 -10 15 -7 3 -13 0 -13 -7 0 -6 -5
-8 -10 -5 -6 4 -8 11 -4 16 3 6 -6 9 -22 7 -16 -2 -28 2 -30 10 -1 7 0 8 3 2
8 -17 23 -11 23 9 0 24 -16 36 -23 19 -3 -7 -6 -3 -6 8 -1 23 -46 40 -57 22
-4 -5 -15 -8 -25 -5 -11 3 -19 1 -19 -4 0 -12 -42 -11 -60 2 -12 8 -11 9 5 5
11 -3 27 -1 35 4 10 6 1 8 -28 5 -33 -3 -60 5 -128 37 -65 30 -83 43 -73 50
11 8 10 9 -4 4 -19 -6 -67 12 -67 26 0 4 -5 8 -12 8 -20 0 -117 53 -112 62 3
4 -2 5 -10 2 -8 -3 -23 3 -34 14 -11 11 -28 22 -38 24 -9 1 -19 9 -20 16 -2 8
-1 9 3 1 4 -8 13 -4 25 12 13 17 21 20 25 11 6 -17 63 -46 63 -32 0 5 5 10 11
10 6 0 9 -7 5 -15 -3 -8 -1 -15 5 -15 6 0 17 7 25 15 9 9 11 15 4 15 -6 0 -8
5 -5 10 10 16 -24 24 -49 12 -21 -9 -22 -8 -18 13 4 22 17 31 49 34 6 0 28 -8
47 -20z m4321 -9 c-3 -5 -12 -10 -18 -10 -7 0 -6 4 3 10 19 12 23 12 15 0z
m-4507 -18 c-10 -2 -18 -7 -18 -12 0 -9 -38 -1 -45 10 -2 4 15 7 38 7 23 0 34
-2 25 -5z m7022 -6 c0 -2 -12 -11 -27 -20 l-28 -17 24 20 c23 21 31 25 31 17z
m-3041 -113 c60 -91 91 -249 66 -344 -47 -185 -186 -319 -416 -400 -95 -33
-126 -49 -149 -75 -16 -19 -34 -34 -39 -34 -27 0 -17 27 33 83 50 58 57 71 76
152 11 49 29 107 39 130 22 49 78 95 146 120 76 28 101 50 134 118 36 71 51
143 51 233 0 79 15 84 59 17z m-1548 -106 c-8 -8 -11 -7 -11 4 0 20 13 34 18
19 3 -7 -1 -17 -7 -23z m46 -29 c-3 -8 -6 -5 -6 6 -1 11 2 17 5 13 3 -3 4 -12
1 -19z m-1867 -70 c10 -6 3 -7 -20 -2 -19 3 -39 10 -45 16 -12 11 42 0 65 -14z
m1630 -3 c0 -8 -2 -15 -4 -15 -2 0 -6 7 -10 15 -3 8 -1 15 4 15 6 0 10 -7 10
-15z m-22 -14 c3 -8 -1 -12 -9 -9 -7 2 -15 10 -17 17 -3 8 1 12 9 9 7 -2 15
-10 17 -17z m797 -97 c61 -41 105 -85 127 -129 47 -90 61 -210 32 -267 -14
-26 -19 -29 -46 -24 -43 8 -98 44 -92 60 3 7 -6 18 -20 24 -38 17 -51 48 -28
68 19 16 19 74 1 74 -5 0 -9 14 -9 30 0 17 5 30 10 30 6 0 10 9 10 19 0 11 6
21 13 24 8 3 6 7 -6 12 -15 6 -16 9 -2 19 9 7 12 19 8 34 -3 13 -9 19 -12 14
-3 -5 -14 1 -24 14 -23 31 -11 30 38 -2z m2780 -4 c3 -5 1 -10 -4 -10 -6 0
-11 5 -11 10 0 6 2 10 4 10 3 0 8 -4 11 -10z m-3050 -21 c5 -16 9 -18 15 -9 6
9 10 7 15 -9 3 -11 3 -25 0 -31 -3 -5 5 -15 19 -21 14 -7 28 -21 32 -33 3 -12
13 -29 22 -38 8 -10 11 -18 6 -19 -5 0 2 -5 15 -10 28 -11 26 -14 -11 -23 -22
-5 -28 -3 -28 9 0 9 -4 14 -9 11 -18 -12 -101 135 -101 179 0 23 18 18 25 -6z
m3495 11 c-8 -5 -19 -10 -25 -10 -5 0 -3 5 5 10 8 5 20 10 25 10 6 0 3 -5 -5
-10z m-580 -40 c0 -5 -12 -12 -27 -16 -16 -3 -41 -10 -57 -15 -16 -5 -32 -7
-34 -4 -8 7 -2 11 48 28 54 19 70 20 70 7z m-2680 -30 c0 -5 -4 -10 -10 -10
-5 0 -10 5 -10 10 0 6 5 10 10 10 6 0 10 -4 10 -10z m2550 -10 c0 -5 -8 -10
-17 -10 -15 0 -16 2 -3 10 19 12 20 12 20 0z m-40 -14 c0 -2 -7 -6 -15 -10 -8
-3 -15 -1 -15 4 0 6 7 10 15 10 8 0 15 -2 15 -4z m465 -31 c-27 -13 -54 -24
-60 -24 -5 1 13 11 40 24 28 13 55 24 60 24 6 -1 -12 -11 -40 -24z m-522 8
c-7 -2 -21 -2 -30 0 -10 3 -4 5 12 5 17 0 24 -2 18 -5z m-130 -30 c-7 -2 -19
-2 -25 0 -7 3 -2 5 12 5 14 0 19 -2 13 -5z m-9663 -97 l22 -31 -31 33 c-22 23
-31 41 -30 65 l1 32 8 -34 c4 -18 18 -47 30 -65z m5448 41 c53 -19 129 -42
167 -53 39 -10 63 -20 54 -22 -18 -3 -320 86 -333 99 -18 16 13 10 112 -24z
m4117 26 c-11 -2 -31 -8 -45 -14 -14 -5 -34 -11 -45 -14 -56 -12 -324 -85
-348 -94 -16 -6 -39 -11 -53 -11 -13 0 -72 -11 -130 -26 -59 -14 -108 -23
-111 -21 -11 12 327 103 662 180 11 3 36 5 55 5 19 0 26 -2 15 -5z m624 3 c-9
-10 -202 -78 -309 -109 -197 -59 -298 -84 -505 -127 -266 -54 -253 -52 -235
-41 8 5 60 19 115 31 96 20 209 47 473 111 113 27 307 86 407 123 40 15 62 20
54 12z m-2914 -66 c1 -11 -2 -20 -7 -20 -4 0 -8 12 -8 27 0 30 13 24 15 -7z
m50 -20 c-3 -5 -11 -10 -16 -10 -6 0 -7 5 -4 10 3 6 11 10 16 10 6 0 7 -4 4
-10z m-1515 -49 c58 -16 98 -30 90 -30 -17 -1 -202 47 -209 54 -9 9 15 4 119
-24z m-3900 -43 c-42 -36 -208 -146 -267 -177 -28 -14 -43 -28 -43 -40 0 -32
-109 -116 -127 -98 -3 4 -2 23 4 42 13 42 10 43 -29 10 -38 -32 -48 -32 -48 4
0 68 77 121 266 185 71 24 158 57 194 74 83 39 94 39 50 0z m4100 -8 c20 -6
21 -8 5 -8 -11 0 -29 3 -40 8 -25 11 1 11 35 0z m1350 -107 c33 -24 95 -67
138 -96 81 -54 142 -102 142 -111 0 -8 -42 16 -95 55 -28 20 -83 55 -123 78
-39 23 -81 54 -92 69 -11 15 -38 39 -60 52 -22 14 -40 28 -40 32 0 8 48 -21
130 -79z m-6050 14 c0 -2 -37 -27 -82 -54 -46 -28 -106 -75 -135 -105 -46 -49
-52 -61 -58 -112 -10 -80 0 -140 35 -213 40 -80 126 -160 214 -199 36 -16 65
-33 63 -39 -2 -6 -44 -10 -103 -9 -87 0 -105 4 -152 27 -55 29 -101 81 -134
155 -60 133 -31 318 68 439 38 46 68 65 149 94 43 16 135 26 135 16z m12700
-43 c308 16 397 18 430 9 41 -11 41 -9 43 -258 2 -181 -1 -191 -73 -260 -31
-29 -41 -34 -37 -20 31 108 55 358 39 410 l-8 30 -130 7 c-255 13 -345 25
-399 51 -28 14 -57 32 -63 40 -11 13 -8 13 30 0 34 -12 70 -14 168 -9z m-6055
-106 c-90 -73 -169 -156 -187 -195 -10 -24 -24 -43 -30 -43 -9 0 -9 -3 0 -12
9 -9 17 -6 37 12 13 12 22 26 20 31 -3 4 -1 10 4 13 5 4 12 2 15 -3 6 -9 -61
-91 -73 -91 -3 0 -11 11 -18 25 -6 14 -7 25 -2 25 5 0 18 19 28 43 19 45 109
138 187 193 60 43 71 44 19 2z m6205 -77 c20 -6 44 -17 54 -24 18 -13 17 -17
-23 -75 -22 -33 -45 -64 -51 -67 -5 -3 -31 3 -56 14 -26 12 -53 21 -60 21 -20
0 -17 24 6 45 27 25 25 53 -5 67 -77 35 30 50 135 19z m-6293 -56 c0 -8 -4
-15 -9 -15 -10 0 -11 14 -1 23 9 10 10 9 10 -8z m-6325 -33 c16 -14 38 -41 50
-59 13 -18 26 -33 29 -33 4 0 17 16 30 35 13 19 26 35 29 35 9 0 -7 -133 -19
-165 -17 -41 -69 -94 -111 -112 -39 -17 -143 -18 -202 -3 -70 19 -133 97 -153
188 -7 35 13 78 59 121 l26 24 0 -30 c0 -17 9 -60 20 -96 17 -54 28 -73 64
-102 60 -49 76 -47 76 11 0 26 -5 75 -11 109 -7 34 -9 74 -5 89 6 26 9 27 49
21 24 -4 54 -18 69 -33z m6304 -4 c4 -7 3 -8 -4 -4 -7 4 -12 2 -12 -5 0 -7 -3
-10 -6 -6 -6 5 3 27 11 27 2 0 7 -5 11 -12z m6743 -243 c-29 -78 -96 -145
-173 -174 -32 -12 -61 -19 -64 -17 -7 7 35 60 108 135 79 82 117 134 132 185
l13 41 3 -56 c2 -39 -4 -74 -19 -114z m-14546 -415 c66 -172 104 -233 223
-359 87 -92 211 -186 329 -248 84 -45 94 -53 29 -27 -111 44 -245 129 -333
209 -62 56 -178 215 -228 311 -24 46 -49 113 -58 153 -18 89 -19 133 0 71 7
-25 24 -74 38 -110z m15027 -100 c-12 -16 -26 -30 -31 -30 -5 0 3 14 18 30 14
17 28 30 30 30 3 0 -5 -13 -17 -30z m326 -98 c-55 -115 -205 -282 -326 -361
-88 -57 -248 -135 -341 -165 -184 -59 -315 -73 -651 -68 -125 2 -160 5 -172
17 -8 9 -30 22 -47 29 -29 12 -5 14 217 20 311 8 443 19 565 51 278 71 534
246 699 478 49 70 56 76 64 57 7 -15 4 -31 -8 -58z m-13416 8 c0 -5 -2 -10 -4
-10 -3 0 -8 5 -11 10 -3 6 -1 10 4 10 6 0 11 -4 11 -10z m90 -10 c24 -8 24 -8
-5 -8 -16 0 -41 4 -55 8 -24 8 -24 8 5 8 17 0 41 -4 55 -8z m10897 -31 l43
-21 -6 -51 c-7 -63 -30 -157 -50 -206 l-14 -36 -4173 3 c-5631 3 -6073 4
-6120 20 -33 11 -43 22 -64 68 -14 31 -27 73 -30 95 -7 46 -17 56 -63 61 -44
4 -49 25 -17 64 l25 29 5213 -3 5213 -2 43 -21z m1793 -99 c0 -5 -9 -10 -21
-10 -11 0 -27 -6 -34 -14 -16 -16 -172 -47 -230 -45 -29 1 -19 4 40 14 44 7
114 24 155 38 89 30 90 30 90 17z m-1530 -16 c0 -9 -5 -14 -12 -12 -18 6 -21
28 -4 28 9 0 16 -7 16 -16z m70 12 c0 -9 -40 -13 -46 -5 -3 5 6 9 20 9 14 0
26 -2 26 -4z m460 -116 c8 -5 11 -10 5 -10 -5 0 -17 5 -25 10 -8 5 -10 10 -5
10 6 0 17 -5 25 -10z m137 -36 c-3 -3 -12 -4 -19 -1 -8 3 -5 6 6 6 11 1 17 -2
13 -5z m-12515 -28 c8 -7 41 -18 73 -23 l60 -10 -60 -1 c-33 -1 -94 7 -135 18
l-75 19 58 -2 c31 -1 57 1 57 6 0 11 7 9 22 -7z m12907 -20 c-2 -2 -17 -6 -34
-10 -22 -5 -26 -4 -15 4 14 9 59 15 49 6z m-11842 -12 c-3 -3 -12 -4 -19 -1
-8 3 -5 6 6 6 11 1 17 -2 13 -5z"/>
<path d="M496 15411 c-4 -5 -2 -12 3 -15 5 -4 12 -2 15 3 4 5 2 12 -3 15 -5 4
-12 2 -15 -3z"/>
<path d="M1358 13723 c7 -3 16 -2 19 1 4 3 -2 6 -13 5 -11 0 -14 -3 -6 -6z"/>
<path d="M357 14513 c-4 -3 -7 -16 -6 -27 0 -19 1 -19 10 3 10 24 8 36 -4 24z"/>
<path d="M9300 13831 c0 -10 50 -25 57 -18 2 3 -10 9 -26 15 -17 6 -31 7 -31
3z"/>
<path d="M11035 13300 c3 -5 8 -10 11 -10 2 0 4 5 4 10 0 6 -5 10 -11 10 -5 0
-7 -4 -4 -10z"/>
<path d="M11017 13276 c-4 -10 -1 -13 8 -9 8 3 12 9 9 14 -7 12 -11 11 -17 -5z"/>
<path d="M11120 13260 c0 -5 5 -10 10 -10 6 0 10 5 10 10 0 6 -4 10 -10 10 -5
0 -10 -4 -10 -10z"/>
<path d="M11261 13194 c0 -11 3 -14 6 -6 3 7 2 16 -1 19 -3 4 -6 -2 -5 -13z"/>
<path d="M11280 13164 c0 -22 24 -44 40 -34 9 6 7 10 -9 15 -14 4 -20 12 -17
21 3 8 1 14 -4 14 -6 0 -10 -7 -10 -16z"/>
<path d="M11370 13094 c0 -8 5 -12 10 -9 6 3 10 10 10 16 0 5 -4 9 -10 9 -5 0
-10 -7 -10 -16z"/>
<path d="M11425 13100 c-3 -6 1 -7 9 -4 18 7 21 14 7 14 -6 0 -13 -4 -16 -10z"/>
<path d="M11680 13016 c0 -2 7 -7 16 -10 8 -3 12 -2 9 4 -6 10 -25 14 -25 6z"/>
<path d="M11703 12955 c0 -7 6 -11 14 -8 7 3 13 6 13 8 0 2 -6 5 -13 8 -8 3
-14 -1 -14 -8z"/>
<path d="M11760 12929 c0 -5 5 -7 10 -4 6 3 10 8 10 11 0 2 -4 4 -10 4 -5 0
-10 -5 -10 -11z"/>
<path d="M12795 11810 c3 -5 8 -10 11 -10 2 0 4 5 4 10 0 6 -5 10 -11 10 -5 0
-7 -4 -4 -10z"/>
<path d="M12863 11753 c-18 -7 -16 -23 2 -23 8 0 15 7 15 15 0 8 -1 15 -2 14
-2 0 -9 -3 -15 -6z"/>
<path d="M12910 11700 c0 -5 5 -10 10 -10 6 0 10 5 10 10 0 6 -4 10 -10 10 -5
0 -10 -4 -10 -10z"/>
<path d="M13010 11641 c0 -12 5 -21 10 -21 6 0 10 6 10 14 0 8 -4 18 -10 21
-5 3 -10 -3 -10 -14z"/>
<path d="M7642 13764 c-7 -8 -8 -14 -3 -14 10 0 25 19 20 25 -2 1 -10 -3 -17
-11z"/>
<path d="M6722 13227 c-18 -20 -42 -60 -42 -70 0 -2 8 -4 17 -4 24 0 43 21 43
46 0 11 7 24 16 29 14 8 14 10 1 15 -8 3 -23 -4 -35 -16z"/>
<path d="M12131 11597 c-6 -16 -11 -33 -11 -38 0 -5 -5 -9 -12 -9 -6 0 -8 -3
-5 -7 4 -3 15 1 25 10 21 19 38 11 21 -10 -9 -9 -8 -13 0 -13 20 0 22 24 7 61
l-14 34 -11 -28z"/>
<path d="M12065 11590 c-3 -6 1 -7 9 -4 18 7 21 14 7 14 -6 0 -13 -4 -16 -10z"/>
<path d="M12147 11493 c3 -7 9 -13 14 -13 5 0 9 6 9 13 0 8 -6 14 -14 14 -8 0
-12 -6 -9 -14z"/>
<path d="M10430 8895 c-10 -13 -10 -19 4 -33 9 -10 16 -22 16 -26 0 -11 41
-68 46 -63 9 9 -40 107 -54 107 -12 0 -12 3 -2 15 7 8 10 15 7 15 -2 0 -10 -7
-17 -15z"/>
<path d="M10585 8400 c-3 -5 1 -13 10 -16 22 -9 29 1 11 15 -10 8 -16 9 -21 1z"/>
<path d="M10563 8310 c4 -65 21 -97 33 -65 4 10 2 26 -4 36 -15 23 -16 69 -2
69 6 0 10 5 10 10 0 6 -9 10 -21 10 -19 0 -20 -5 -16 -60z"/>
<path d="M10574 8204 c9 -8 20 -12 26 -9 18 11 11 21 -16 23 -23 2 -24 0 -10
-14z"/>
<path d="M5190 8080 c0 -5 5 -10 11 -10 5 0 7 5 4 10 -3 6 -8 10 -11 10 -2 0
-4 -4 -4 -10z"/>
<path d="M6660 7361 c0 -6 4 -13 10 -16 6 -3 7 1 4 9 -7 18 -14 21 -14 7z"/>
<path d="M7257 7355 c-4 -8 -2 -17 3 -20 6 -4 10 3 10 14 0 25 -6 27 -13 6z"/>
<path d="M6716 7265 c-9 -26 -7 -32 5 -12 6 10 9 21 6 23 -2 3 -7 -2 -11 -11z"/>
<path d="M6745 7190 c3 -5 8 -10 11 -10 2 0 4 5 4 10 0 6 -5 10 -11 10 -5 0
-7 -4 -4 -10z"/>
<path d="M6730 6734 c0 -8 5 -12 10 -9 6 4 8 11 5 16 -9 14 -15 11 -15 -7z"/>
<path d="M6690 6720 c0 -5 7 -10 16 -10 8 0 12 5 9 10 -3 6 -10 10 -16 10 -5
0 -9 -4 -9 -10z"/>
<path d="M8460 11340 c0 -11 4 -20 9 -20 5 0 7 9 4 20 -3 11 -7 20 -9 20 -2 0
-4 -9 -4 -20z"/>
<path d="M8817 11063 c-11 -10 -8 -20 7 -26 10 -4 12 0 9 14 -6 21 -7 22 -16
12z"/>
<path d="M9186 10357 c3 -10 9 -15 12 -12 3 3 0 11 -7 18 -10 9 -11 8 -5 -6z"/>
<path d="M9232 10260 c0 -14 2 -19 5 -12 2 6 2 18 0 25 -3 6 -5 1 -5 -13z"/>
<path d="M10184 8564 c-4 -10 -15 -37 -24 -59 -10 -22 -25 -61 -35 -87 -10
-27 -19 -48 -21 -48 -3 0 -2 19 1 43 3 27 2 35 -3 23 -8 -19 -9 -19 -23 1
l-14 21 -43 -20 c-40 -19 -55 -38 -30 -38 6 0 9 -3 5 -6 -3 -4 5 -28 19 -55
26 -52 72 -84 104 -74 12 4 20 2 20 -4 0 -6 14 -11 30 -11 17 0 30 5 30 13 0
8 3 7 10 -3 7 -11 11 -9 19 13 7 17 16 25 24 21 10 -3 16 5 21 28 5 25 9 30
16 18 17 -27 20 -3 7 49 -7 28 -16 49 -19 46 -3 -3 -11 9 -19 27 -7 18 -19 39
-26 46 -7 7 -13 19 -13 25 0 7 -7 21 -15 31 -14 19 -15 19 -21 0z"/>
<path d="M10122 8050 c0 -14 2 -19 5 -12 2 6 2 18 0 25 -3 6 -5 1 -5 -13z"/>
<path d="M10227 6526 c-4 -10 -5 -21 -2 -24 9 -9 17 6 13 25 -3 17 -4 17 -11
-1z"/>
<path d="M10026 6335 c-16 -12 -17 -15 -4 -15 9 0 18 7 22 15 7 18 6 18 -18 0z"/>
<path d="M5642 11210 c-23 -17 -42 -35 -42 -41 0 -13 102 43 108 59 7 21 -24
13 -66 -18z"/>
<path d="M10026 11321 c22 -20 164 -111 211 -134 29 -15 54 -23 57 -19 12 20
-32 54 -139 106 -108 52 -153 69 -129 47z"/>
<path d="M4371 7614 c-22 -25 -22 -26 -5 -52 13 -20 19 -23 22 -12 3 8 8 17
13 20 4 3 11 19 15 35 7 28 6 29 -11 15 -17 -14 -18 -13 -12 3 9 23 5 22 -22
-9z"/>
<path d="M4370 7464 c0 -8 5 -12 10 -9 6 3 10 10 10 16 0 5 -4 9 -10 9 -5 0
-10 -7 -10 -16z"/>
<path d="M9230 11450 c0 -6 7 -10 15 -10 8 0 15 2 15 4 0 2 -7 6 -15 10 -8 3
-15 1 -15 -4z"/>
<path d="M9320 11291 c0 -12 48 -71 104 -128 43 -43 48 -45 44 -23 -2 14 3 30
10 35 21 17 3 44 -37 55 -44 12 -101 46 -101 60 0 5 -4 10 -10 10 -5 0 -10 -4
-10 -9z"/>
<path d="M9649 11109 c-106 -64 -123 -80 -116 -111 4 -13 35 -57 70 -98 35
-41 94 -121 130 -177 37 -57 71 -103 77 -103 17 0 78 91 101 150 48 126 -4
319 -101 368 -24 12 -52 22 -60 22 -9 0 -55 -23 -101 -51z"/>
<path d="M3020 6478 c0 -9 5 -20 10 -23 13 -8 13 5 0 25 -8 13 -10 13 -10 -2z"/>
<path d="M11720 8040 c0 -5 5 -10 11 -10 5 0 7 5 4 10 -3 6 -8 10 -11 10 -2 0
-4 -4 -4 -10z"/>
<path d="M11650 8018 c-12 -22 -12 -22 6 -6 10 10 15 20 12 24 -4 3 -12 -5
-18 -18z"/>
<path d="M11745 8010 c3 -5 10 -10 16 -10 5 0 9 5 9 10 0 6 -7 10 -16 10 -8 0
-12 -4 -9 -10z"/>
<path d="M11722 7950 c-6 -11 -8 -21 -3 -25 5 -3 13 4 16 16 9 28 2 33 -13 9z"/>
<path d="M13500 7129 c0 -5 5 -7 10 -4 6 3 10 8 10 11 0 2 -4 4 -10 4 -5 0
-10 -5 -10 -11z"/>
<path d="M13437 7075 c3 -8 9 -12 14 -9 12 7 11 11 -5 17 -10 4 -13 1 -9 -8z"/>
<path d="M12023 7240 c-3 -11 -10 -17 -15 -14 -6 4 -8 -2 -6 -11 1 -10 10 -19
19 -20 11 -2 15 6 15 31 0 38 -5 44 -13 14z"/>
<path d="M8151 6229 c-2 -24 20 -79 31 -79 10 0 0 42 -12 50 -4 3 -10 14 -13
25 -3 14 -5 15 -6 4z"/>
<path d="M3650 3635 c13 -14 26 -25 28 -25 3 0 -5 11 -18 25 -13 14 -26 25
-28 25 -3 0 5 -11 18 -25z"/>
<path d="M3691 3584 c0 -11 3 -14 6 -6 3 7 2 16 -1 19 -3 4 -6 -2 -5 -13z"/>
<path d="M3710 3561 c0 -6 4 -13 10 -16 6 -3 7 1 4 9 -7 18 -14 21 -14 7z"/>
<path d="M4120 3081 c0 -6 5 -13 10 -16 6 -3 10 1 10 9 0 9 -4 16 -10 16 -5 0
-10 -4 -10 -9z"/>
<path d="M5840 4916 c0 -9 5 -16 10 -16 6 0 10 4 10 9 0 6 -4 13 -10 16 -5 3
-10 -1 -10 -9z"/>
<path d="M6918 2763 c6 -2 18 -2 25 0 6 3 1 5 -13 5 -14 0 -19 -2 -12 -5z"/>
<path d="M6536 2403 c-6 -14 -5 -15 5 -6 7 7 10 15 7 18 -3 3 -9 -2 -12 -12z"/>
<path d="M6650 2386 c0 -15 18 -31 26 -23 7 7 -7 37 -17 37 -5 0 -9 -6 -9 -14z"/>
<path d="M9095 2810 c4 -6 11 -8 16 -5 14 9 11 15 -7 15 -8 0 -12 -5 -9 -10z"/>
<path d="M11520 3045 c-10 -12 -10 -15 4 -15 9 0 16 7 16 15 0 8 -2 15 -4 15
-2 0 -9 -7 -16 -15z"/>
<path d="M11540 3010 c0 -5 4 -10 9 -10 6 0 13 5 16 10 3 6 -1 10 -9 10 -9 0
-16 -4 -16 -10z"/>
<path d="M4675 2740 c3 -5 14 -10 23 -10 15 0 15 2 2 10 -20 13 -33 13 -25 0z"/>
<path d="M4692 2708 c7 -18 -26 -62 -52 -70 -9 -3 -5 -7 12 -10 20 -4 25 -1
21 10 -5 11 -1 13 17 7 15 -5 20 -4 16 4 -4 7 1 11 13 11 12 0 21 -6 21 -14 0
-7 7 -19 15 -26 12 -10 15 -9 15 4 0 14 4 15 20 6 22 -12 27 -1 8 18 -8 8 -17
8 -30 1 -17 -9 -18 -8 -9 9 9 17 7 19 -14 14 -18 -3 -25 0 -25 11 0 8 -8 21
-17 28 -15 12 -16 12 -11 -3z"/>
<path d="M4580 2674 c0 -8 5 -12 10 -9 6 3 10 10 10 16 0 5 -4 9 -10 9 -5 0
-10 -7 -10 -16z"/>
<path d="M4711 2604 c0 -11 3 -14 6 -6 3 7 2 16 -1 19 -3 4 -6 -2 -5 -13z"/>
<path d="M5075 2460 c4 -6 11 -8 16 -5 14 9 11 15 -7 15 -8 0 -12 -5 -9 -10z"/>
<path d="M5230 2391 c0 -5 8 -11 18 -15 9 -3 24 -9 32 -12 8 -3 4 4 -10 15
-27 22 -40 26 -40 12z"/>
<path d="M7560 2165 c0 -9 6 -12 15 -9 8 4 12 10 9 15 -8 14 -24 10 -24 -6z"/>
<path d="M7540 2035 c0 -8 5 -15 10 -15 6 0 10 -15 10 -34 0 -29 3 -33 20 -29
25 7 30 73 5 73 -8 0 -15 5 -15 10 0 6 -7 10 -15 10 -8 0 -15 -7 -15 -15z"/>
<path d="M7638 1965 c-8 -18 -8 -29 -1 -36 7 -7 12 0 15 25 5 43 2 45 -14 11z"/>
<path d="M15536 663 c-6 -14 -5 -15 5 -6 7 7 10 15 7 18 -3 3 -9 -2 -12 -12z"/>
</g>
</svg>
